<?xml version="1.0" encoding="UTF-8" standalone="no"?>
<!-- Created with Inkscape (http://www.inkscape.org/) -->

<svg
   width="415.98242"
   height="358.75342"
   viewBox="0 0 110.06202 94.920174"
   version="1.1"
   id="svg1"
   xml:space="preserve"
   inkscape:version="1.4 (e7c3feb100, 2024-10-09)"
   sodipodi:docname="ceci-city.svg"
   inkscape:export-filename="mpiab-institute.svg"
   inkscape:export-xdpi="100.32645"
   inkscape:export-ydpi="100.32645"
   inkscape:export-batch-path="../../Website/img/icons/home.svg"
   inkscape:export-batch-name="ceci-city"
   xmlns:inkscape="http://www.inkscape.org/namespaces/inkscape"
   xmlns:sodipodi="http://sodipodi.sourceforge.net/DTD/sodipodi-0.dtd"
   xmlns="http://www.w3.org/2000/svg"
   xmlns:svg="http://www.w3.org/2000/svg"><sodipodi:namedview
     id="namedview1"
     pagecolor="#ffffff"
     bordercolor="#000000"
     borderopacity="0.25"
     inkscape:showpageshadow="2"
     inkscape:pageopacity="0.0"
     inkscape:pagecheckerboard="true"
     inkscape:deskcolor="#d1d1d1"
     inkscape:document-units="mm"
     showgrid="true"
     inkscape:zoom="0.125"
     inkscape:cx="2692"
     inkscape:cy="1180"
     inkscape:window-width="1866"
     inkscape:window-height="1043"
     inkscape:window-x="54"
     inkscape:window-y="0"
     inkscape:window-maximized="1"
     inkscape:current-layer="layer1"
     inkscape:export-bgcolor="#ffffff00"><inkscape:grid
       type="axonomgrid"
       id="grid1"
       units="px"
       originx="-1209.0377"
       originy="-890.54675"
       spacingx="0.99999998"
       spacingy="6.535188"
       empcolor="#001bee"
       empopacity="0.30196078"
       color="#2bafef"
       opacity="0.44705882"
       empspacing="2"
       dotted="false"
       gridanglex="30"
       gridanglez="30"
       enabled="true"
       visible="true" /></sodipodi:namedview><defs
     id="defs1"><inkscape:path-effect
       effect="fillet_chamfer"
       id="path-effect10439"
       is_visible="true"
       lpeversion="1"
       nodesatellites_param="F,0,0,1,0,2.6458333,0,1 @ F,0,0,1,0,2.6458333,0,1 @ F,0,0,1,0,2.6458333,0,1 @ F,0,0,1,0,2.6458333,0,1"
       radius="10"
       unit="px"
       method="auto"
       mode="F"
       chamfer_steps="1"
       flexible="false"
       use_knot_distance="true"
       apply_no_radius="true"
       apply_with_radius="true"
       only_selected="false"
       hide_knots="false" /><inkscape:path-effect
       effect="fillet_chamfer"
       id="path-effect10437"
       is_visible="true"
       lpeversion="1"
       nodesatellites_param="F,0,0,1,0,2.6458333,0,1 @ F,0,0,1,0,2.6458333,0,1 @ F,0,0,1,0,2.6458333,0,1 @ F,0,0,1,0,2.6458333,0,1"
       radius="10"
       unit="px"
       method="auto"
       mode="F"
       chamfer_steps="1"
       flexible="false"
       use_knot_distance="true"
       apply_no_radius="true"
       apply_with_radius="true"
       only_selected="false"
       hide_knots="false" /><inkscape:path-effect
       effect="fillet_chamfer"
       id="path-effect10435"
       is_visible="true"
       lpeversion="1"
       nodesatellites_param="F,0,0,1,0,2.6458333,0,1 @ F,0,0,1,0,2.6458333,0,1 @ F,0,0,1,0,2.6458333,0,1 @ F,0,0,1,0,2.6458333,0,1"
       radius="10"
       unit="px"
       method="auto"
       mode="F"
       chamfer_steps="1"
       flexible="false"
       use_knot_distance="true"
       apply_no_radius="true"
       apply_with_radius="true"
       only_selected="false"
       hide_knots="false" /><inkscape:path-effect
       effect="fillet_chamfer"
       id="path-effect10433"
       is_visible="true"
       lpeversion="1"
       nodesatellites_param="F,0,0,1,0,2.6458333,0,1 @ F,0,0,1,0,2.6458333,0,1 @ F,0,0,1,0,2.6458333,0,1 @ F,0,0,1,0,2.6458333,0,1"
       radius="10"
       unit="px"
       method="auto"
       mode="F"
       chamfer_steps="1"
       flexible="false"
       use_knot_distance="true"
       apply_no_radius="true"
       apply_with_radius="true"
       only_selected="false"
       hide_knots="false" /><inkscape:path-effect
       effect="fillet_chamfer"
       id="path-effect10431"
       is_visible="true"
       lpeversion="1"
       nodesatellites_param="F,0,0,1,0,2.6458333,0,1 @ F,0,0,1,0,2.6458333,0,1 @ F,0,0,1,0,2.6458333,0,1 @ F,0,0,1,0,2.6458333,0,1"
       radius="10"
       unit="px"
       method="auto"
       mode="F"
       chamfer_steps="1"
       flexible="false"
       use_knot_distance="true"
       apply_no_radius="true"
       apply_with_radius="true"
       only_selected="false"
       hide_knots="false" /><inkscape:path-effect
       effect="fillet_chamfer"
       id="path-effect10427"
       is_visible="true"
       lpeversion="1"
       nodesatellites_param="F,0,0,1,0,10.583333,0,1 @ F,0,0,1,0,10.583333,0,1 @ F,0,0,1,0,10.583333,0,1 @ F,0,0,1,0,10.583333,0,1"
       radius="40"
       unit="px"
       method="auto"
       mode="F"
       chamfer_steps="1"
       flexible="false"
       use_knot_distance="true"
       apply_no_radius="true"
       apply_with_radius="true"
       only_selected="false"
       hide_knots="false" /><inkscape:path-effect
       effect="fillet_chamfer"
       id="path-effect10425"
       is_visible="true"
       lpeversion="1"
       nodesatellites_param="F,0,0,1,0,10.583333,0,1 @ F,0,0,1,0,10.583333,0,1 @ F,0,0,1,0,10.583333,0,1 @ F,0,0,1,0,10.583333,0,1"
       radius="40"
       unit="px"
       method="auto"
       mode="F"
       chamfer_steps="1"
       flexible="false"
       use_knot_distance="true"
       apply_no_radius="true"
       apply_with_radius="true"
       only_selected="false"
       hide_knots="false" /><inkscape:path-effect
       effect="fillet_chamfer"
       id="path-effect10423"
       is_visible="true"
       lpeversion="1"
       nodesatellites_param="F,0,0,1,0,10.583333,0,1 @ F,0,0,1,0,10.583333,0,1 @ F,0,0,1,0,10.583333,0,1 @ F,0,0,1,0,10.583333,0,1"
       radius="40"
       unit="px"
       method="auto"
       mode="F"
       chamfer_steps="1"
       flexible="false"
       use_knot_distance="true"
       apply_no_radius="true"
       apply_with_radius="true"
       only_selected="false"
       hide_knots="false" /><inkscape:path-effect
       effect="fillet_chamfer"
       id="path-effect10421"
       is_visible="true"
       lpeversion="1"
       nodesatellites_param="F,0,0,1,0,10.583333,0,1 @ F,0,0,1,0,10.583333,0,1 @ F,0,0,1,0,10.583333,0,1 @ F,0,0,1,0,10.583333,0,1"
       radius="40"
       unit="px"
       method="auto"
       mode="F"
       chamfer_steps="1"
       flexible="false"
       use_knot_distance="true"
       apply_no_radius="true"
       apply_with_radius="true"
       only_selected="false"
       hide_knots="false" /><inkscape:path-effect
       effect="fillet_chamfer"
       id="path-effect10419"
       is_visible="true"
       lpeversion="1"
       nodesatellites_param="F,0,0,1,0,10.583333,0,1 @ F,0,0,1,0,10.583333,0,1 @ F,0,0,1,0,10.583333,0,1 @ F,0,0,1,0,10.583333,0,1"
       radius="40"
       unit="px"
       method="auto"
       mode="F"
       chamfer_steps="1"
       flexible="false"
       use_knot_distance="true"
       apply_no_radius="true"
       apply_with_radius="true"
       only_selected="false"
       hide_knots="false" /><inkscape:path-effect
       effect="fillet_chamfer"
       id="path-effect10417"
       is_visible="true"
       lpeversion="1"
       nodesatellites_param="F,0,0,1,0,10.583333,0,1 @ F,0,0,1,0,10.583333,0,1 @ F,0,0,1,0,10.583333,0,1 @ F,0,0,1,0,10.583333,0,1"
       radius="40"
       unit="px"
       method="auto"
       mode="F"
       chamfer_steps="1"
       flexible="false"
       use_knot_distance="true"
       apply_no_radius="true"
       apply_with_radius="true"
       only_selected="false"
       hide_knots="false" /><inkscape:path-effect
       effect="fillet_chamfer"
       id="path-effect10416"
       is_visible="true"
       lpeversion="1"
       nodesatellites_param="F,0,0,1,0,3.1749999,0,1 @ F,0,0,1,0,0,0,1 @ F,0,0,1,0,0,0,1 @ F,0,0,1,0,0,0,1"
       radius="12"
       unit="px"
       method="auto"
       mode="F"
       chamfer_steps="1"
       flexible="false"
       use_knot_distance="true"
       apply_no_radius="true"
       apply_with_radius="true"
       only_selected="false"
       hide_knots="false" /><inkscape:path-effect
       effect="fillet_chamfer"
       id="path-effect10415"
       is_visible="true"
       lpeversion="1"
       nodesatellites_param="F,0,0,1,0,2.6458333,0,1 @ F,0,0,1,0,2.6458333,0,1 @ F,0,0,1,0,2.6458333,0,1 @ F,0,0,1,0,2.6458333,0,1"
       radius="10"
       unit="px"
       method="auto"
       mode="F"
       chamfer_steps="1"
       flexible="false"
       use_knot_distance="true"
       apply_no_radius="true"
       apply_with_radius="true"
       only_selected="false"
       hide_knots="false" /><inkscape:path-effect
       effect="fillet_chamfer"
       id="path-effect10414"
       is_visible="true"
       lpeversion="1"
       nodesatellites_param="F,0,0,1,0,2.6458333,0,1 @ F,0,0,1,0,2.6458333,0,1 @ F,0,0,1,0,2.6458333,0,1 @ F,0,0,1,0,2.6458333,0,1"
       radius="10"
       unit="px"
       method="auto"
       mode="F"
       chamfer_steps="1"
       flexible="false"
       use_knot_distance="true"
       apply_no_radius="true"
       apply_with_radius="true"
       only_selected="false"
       hide_knots="false" /><inkscape:path-effect
       effect="fillet_chamfer"
       id="path-effect10413"
       is_visible="true"
       lpeversion="1"
       nodesatellites_param="F,0,0,1,0,1.5875,0,1 @ F,0,0,1,0,1.5875,0,1 @ F,0,0,1,0,1.5875,0,1 @ F,0,0,1,0,1.5875,0,1 @ F,0,0,1,0,1.5875,0,1"
       radius="6"
       unit="px"
       method="auto"
       mode="F"
       chamfer_steps="1"
       flexible="false"
       use_knot_distance="true"
       apply_no_radius="true"
       apply_with_radius="true"
       only_selected="false"
       hide_knots="false" /><inkscape:path-effect
       effect="fillet_chamfer"
       id="path-effect10412"
       is_visible="true"
       lpeversion="1"
       nodesatellites_param="F,0,0,1,0,2.6458333,0,1 @ F,0,0,1,0,2.6458333,0,1 @ F,0,0,1,0,2.6458333,0,1 @ F,0,0,1,0,2.6458333,0,1"
       radius="10"
       unit="px"
       method="auto"
       mode="F"
       chamfer_steps="1"
       flexible="false"
       use_knot_distance="true"
       apply_no_radius="true"
       apply_with_radius="true"
       only_selected="false"
       hide_knots="false" /><inkscape:path-effect
       effect="fillet_chamfer"
       id="path-effect10411"
       is_visible="true"
       lpeversion="1"
       nodesatellites_param="F,0,0,1,0,2.6458333,0,1 @ F,0,0,1,0,2.6458333,0,1 @ F,0,0,1,0,2.6458333,0,1 @ F,0,0,1,0,2.6458333,0,1"
       radius="10"
       unit="px"
       method="auto"
       mode="F"
       chamfer_steps="1"
       flexible="false"
       use_knot_distance="true"
       apply_no_radius="true"
       apply_with_radius="true"
       only_selected="false"
       hide_knots="false" /></defs><g
     inkscape:label="Layer 1"
     inkscape:groupmode="layer"
     id="layer1"
     transform="translate(-1209.0113,-890.01757)"><g
       id="g10439"
       transform="matrix(0.85438062,0,0,0.85438062,-55.221137,89.232028)"
       inkscape:export-filename="icons/van.png"
       inkscape:export-xdpi="100.32645"
       inkscape:export-ydpi="100.32645"><path
         style="opacity:1;fill:#ec4743;fill-opacity:1;stroke:none;stroke-width:2.64599;stroke-linejoin:bevel;stroke-dasharray:none;paint-order:markers fill stroke"
         d="m 1482.799,960.14347 73.5753,42.47873 5.6596,9.8028 5.6597,16.3379 v 19.6056 l -4.9613,-2.8644 2.5342,-2.2695 -20.8486,-8.3044 -61.6189,-35.57563 c -4.1237,-15.45118 -4.1237,-28.52159 0,-39.2111 z"
         id="path10397"
         sodipodi:nodetypes="cccccccccc" /><path
         style="opacity:1;fill:#ec4743;fill-opacity:1;stroke:none;stroke-width:2.64599;stroke-linejoin:bevel;stroke-dasharray:none;paint-order:markers fill stroke"
         d="m 1522.4165,937.27027 73.5753,42.4787 5.6596,9.8028 5.6597,16.33793 v 19.6056 l -84.8946,-49.01393 z"
         id="path10398" /><path
         style="opacity:1;fill:#e92925;fill-opacity:1;stroke:none;stroke-width:2.64599;stroke-linejoin:bevel;stroke-dasharray:none;paint-order:markers fill stroke"
         d="m 1567.6936,1028.7629 -5.6596,-16.338 -5.6597,-9.8028 39.6175,-22.87313 5.6596,9.8028 5.6596,16.33793 c 1.6214,6.5976 1.6214,13.1328 0,19.6056 l -39.6174,22.8731 c 0,-6.5352 0,-13.0703 0,-19.6055 z"
         id="path10399"
         sodipodi:nodetypes="ccccccccc" /><path
         style="opacity:1;fill:#ff5148;fill-opacity:1;stroke:none;stroke-width:2.64599;stroke-linejoin:bevel;stroke-dasharray:none;paint-order:markers fill stroke"
         d="m 1519.6669,938.85774 -36.8679,21.28565 73.5753,42.47881 39.6175,-22.87324 -70.8257,-40.89122 a 5.499264,5.499264 1.3388983e-5 0 0 -5.4992,0 z"
         id="path10400"
         inkscape:original-d="m 1522.4165,937.27024 -39.6175,22.87315 73.5753,42.47881 39.6175,-22.87324 z"
         inkscape:path-effect="#path-effect10416" /><path
         style="opacity:1;fill:#d83a39;fill-opacity:1;stroke:none;stroke-width:2.64599;stroke-linejoin:bevel;stroke-dasharray:none;paint-order:markers fill stroke"
         d="m 1567.6936,1035.298 -87.6438,-50.60109 2.7492,14.65762 21.3051,11.77487 40.3138,23.8008 0.6192,-6.1351 18.7267,15.307 -1.0315,1.402 4.9613,2.8643 c 0.031,-4.3516 1.32,-8.4936 0,-13.0704 z"
         id="path10401"
         sodipodi:nodetypes="cccccccccc" /><path
         style="opacity:1;fill:#0c1d24;fill-opacity:1;stroke:none;stroke-width:2.64599;stroke-linejoin:bevel;stroke-dasharray:none;paint-order:markers fill stroke"
         d="m 1547.5572,1027.2692 11.3721,19.575 4.8345,-2.7421 c 0,0 0.8738,-4.7675 -1.7121,-9.9784 -2.6234,-5.2867 -8.7475,-10.9889 -14.4945,-6.8545 z"
         id="path10427"
         sodipodi:nodetypes="cccsc" /><path
         style="opacity:1;fill:#a4f9fe;fill-opacity:1;stroke:none;stroke-width:2.20499;stroke-linejoin:bevel;stroke-dasharray:none;paint-order:markers fill stroke"
         d="m 1561.9939,1002.1009 c 10.3579,-5.97576 23.4702,-13.49538 33.8281,-19.47111 0.7594,-0.43813 1.8196,-0.23795 2.3173,0.48361 3.3541,4.862 5.9178,12.02163 7.9439,18.9692 0.2455,0.8416 -0.1778,1.8813 -0.9371,2.3197 -10.3497,5.9765 -23.3698,13.5058 -33.7195,19.4823 -0.7593,0.4384 -1.6075,0.1222 -1.8945,-0.7062 -1.2257,-3.5383 -2.4514,-7.0767 -3.6771,-10.615 -0.287,-0.8284 -0.8751,-2.1155 -1.3134,-2.8748 l -3.1289,-5.4194 c -0.4383,-0.7593 -0.1782,-1.7302 0.5812,-2.1683 z"
         id="path10402"
         sodipodi:nodetypes="cccccc"
         inkscape:original-d="m 1560.619,1002.8944 c 11.0049,-6.35366 25.573,-14.70447 36.5779,-21.05813 4.0791,5.14934 7.0538,13.7298 9.324,21.77223 -11.0048,6.3537 -25.4643,14.7162 -36.4691,21.0699 -1.5722,-4.5383 -3.1443,-9.0767 -4.7165,-13.615 z"
         inkscape:path-effect="#path-effect10413" /><path
         style="opacity:1;fill:#a4f9fe;fill-opacity:1;stroke:none;stroke-width:3.26111;stroke-linejoin:bevel;stroke-dasharray:none;paint-order:markers fill stroke"
         d="m 1485.2813,967.97727 -1.9364,9.1828 a 3.6478713,3.6478713 65.953728 0 0 1.7455,3.91182 l 12.3961,7.15694 a 1.527572,1.527572 150.00001 0 0 2.2914,-1.32291 v -10.81726 a 4.5827233,4.5827233 60.00003 0 0 -2.2914,-3.96875 l -9.3679,-5.40862 a 1.9190448,1.9190448 155.95375 0 0 -2.8373,1.26598 z"
         id="path10403"
         sodipodi:nodetypes="ccccc"
         inkscape:original-d="m 1485.8272,965.38837 -3.0282,14.3606 16.9789,9.80278 v -16.10892 z"
         inkscape:path-effect="#path-effect10415" /><path
         style="opacity:1;fill:#a4f9fe;fill-opacity:1;stroke:none;stroke-width:3.26111;stroke-linejoin:bevel;stroke-dasharray:none;paint-order:markers fill stroke"
         d="m 1502.2334,977.50637 v 10.81726 a 4.5827023,4.5827023 59.999917 0 0 2.2914,3.96874 l 15.6003,9.00683 a 1.5275777,1.5275777 149.99992 0 0 2.2914,-1.32293 v -10.81723 a 4.5827082,4.5827082 59.999949 0 0 -2.2914,-3.96874 l -15.6003,-9.00685 a 1.5275757,1.5275757 149.99995 0 0 -2.2914,1.32292 z"
         id="path10405"
         sodipodi:nodetypes="ccccc"
         inkscape:original-d="m 1502.2334,974.86054 v 16.10892 l 20.1831,11.65264 v -16.10889 z"
         inkscape:path-effect="#path-effect10411" /><path
         style="opacity:1;fill:#a4f9fe;fill-opacity:1;stroke:none;stroke-width:2.64599;stroke-linejoin:bevel;stroke-dasharray:none;paint-order:markers fill stroke"
         d="m 1547.8849,1001.103 v 16.1088"
         id="path10409" /><path
         style="opacity:1;fill:#a4f9fe;fill-opacity:1;stroke:none;stroke-width:2.64599;stroke-linejoin:bevel;stroke-dasharray:none;paint-order:markers fill stroke"
         d="m 1554.8776,1007.6546 0,10.9317 a 4.5827029,4.5827029 59.99992 0 0 2.2914,3.9687 l 4.3271,2.4983 a 0.98990279,0.98990279 140.5125 0 0 1.4311,-1.1792 l -3.1058,-9.0327 a 29.806324,29.806324 65.952447 0 0 -2.1479,-4.8135 l -1.5083,-2.7077 a 0.68722229,0.68722229 165.43987 0 0 -1.2876,0.3344 z"
         id="path10410"
         sodipodi:nodetypes="ccccc"
         inkscape:original-d="m 1554.8776,1005.0088 v 16.2233 l 8.9099,5.1441 -4.8264,-14.0369 z"
         inkscape:path-effect="#path-effect10414" /><path
         style="opacity:1;fill:#a4f9fe;fill-opacity:1;stroke:none;stroke-width:3.26111;stroke-linejoin:bevel;stroke-dasharray:none;paint-order:markers fill stroke"
         d="m 1528.0761,992.42663 v 10.81727 a 4.5826945,4.5826945 59.999874 0 0 2.2914,3.9687 l 15.6003,9.0068 a 1.5275803,1.5275803 149.99987 0 0 2.2914,-1.3229 v -10.8172 a 4.5827141,4.5827141 59.999981 0 0 -2.2914,-3.9687 l -15.6003,-9.00688 a 1.5275738,1.5275738 149.99998 0 0 -2.2914,1.32291 z"
         id="path10411"
         sodipodi:nodetypes="ccccc"
         inkscape:original-d="m 1528.0761,989.7808 v 16.1089 l 20.1831,11.6526 v -16.1088 z"
         inkscape:path-effect="#path-effect10412" /><path
         style="opacity:1;fill:#374a50;fill-opacity:1;stroke:none;stroke-width:3.96899;stroke-linejoin:bevel;stroke-dasharray:none;paint-order:markers fill stroke"
         d="m 1554.2204,1027.5195 a 16.996716,16.996716 62.632377 0 1 7.8134,15.0943 5.7131937,5.7131937 157.85238 0 1 -9.1654,3.7306 16.996845,16.996845 62.632399 0 1 -7.8134,-15.0944 5.7132006,5.7132006 157.85275 0 1 9.1654,-3.7305 z"
         id="path10416"
         inkscape:original-d="m 1545.055,1022.2278 16.9788,9.8027 v 19.6056 l -16.9788,-9.8028 z"
         inkscape:path-effect="#path-effect10417" /><path
         style="opacity:1;fill:#0c1d24;fill-opacity:1;stroke:none;stroke-width:2.64599;stroke-linejoin:bevel;stroke-dasharray:none;paint-order:markers fill stroke"
         d="m 1488.787,992.80422 11.3721,19.57498 4.8345,-2.7421 c 0,0 0.8738,-4.7675 -1.7121,-9.97838 -2.6234,-5.2867 -8.7475,-10.9889 -14.4945,-6.8545 z"
         id="path10428"
         sodipodi:nodetypes="cccsc" /><path
         style="opacity:1;fill:#374a50;fill-opacity:1;stroke:none;stroke-width:3.96899;stroke-linejoin:bevel;stroke-dasharray:none;paint-order:markers fill stroke"
         d="m 1554.2204,1027.5195 a 16.996716,16.996716 62.632377 0 1 7.8134,15.0943 5.7131937,5.7131937 157.85238 0 1 -9.1654,3.7306 16.996845,16.996845 62.632399 0 1 -7.8134,-15.0944 5.7132006,5.7132006 157.85275 0 1 9.1654,-3.7305 z"
         id="path10417"
         transform="translate(-59.256122,-34.309722)"
         inkscape:original-d="m 1545.055,1022.2278 16.9788,9.8027 v 19.6056 l -16.9788,-9.8028 z"
         inkscape:path-effect="#path-effect10419" /><path
         style="opacity:1;fill:#b2c6cd;fill-opacity:1;stroke:none;stroke-width:3.96899;stroke-linejoin:bevel;stroke-dasharray:none;paint-order:markers fill stroke"
         d="m 1554.2204,1027.5195 a 16.996716,16.996716 62.632377 0 1 7.8134,15.0943 5.7131937,5.7131937 157.85238 0 1 -9.1654,3.7306 16.996845,16.996845 62.632399 0 1 -7.8134,-15.0944 5.7132006,5.7132006 157.85275 0 1 9.1654,-3.7305 z"
         id="path10419"
         transform="matrix(0.64664851,0,0,0.64664851,489.69111,332.09172)"
         inkscape:original-d="m 1545.055,1022.2278 16.9788,9.8027 v 19.6056 l -16.9788,-9.8028 z"
         inkscape:path-effect="#path-effect10421" /><path
         style="opacity:1;fill:#b2c6cd;fill-opacity:1;stroke:none;stroke-width:3.96899;stroke-linejoin:bevel;stroke-dasharray:none;paint-order:markers fill stroke"
         d="m 1554.2204,1027.5195 a 16.996716,16.996716 62.632377 0 1 7.8134,15.0943 5.7131937,5.7131937 157.85238 0 1 -9.1654,3.7306 16.996845,16.996845 62.632399 0 1 -7.8134,-15.0944 5.7132006,5.7132006 157.85275 0 1 9.1654,-3.7305 z"
         id="path10421"
         transform="matrix(0.64664851,0,0,0.64664851,548.94723,366.40147)"
         inkscape:original-d="m 1545.055,1022.2278 16.9788,9.8027 v 19.6056 l -16.9788,-9.8028 z"
         inkscape:path-effect="#path-effect10423" /><path
         style="opacity:1;fill:#546473;fill-opacity:1;stroke:none;stroke-width:3.96899;stroke-linejoin:bevel;stroke-dasharray:none;paint-order:markers fill stroke"
         d="m 1554.2204,1027.5195 a 16.996716,16.996716 62.632377 0 1 7.8134,15.0943 5.7131937,5.7131937 157.85238 0 1 -9.1654,3.7306 16.996845,16.996845 62.632399 0 1 -7.8134,-15.0944 5.7132006,5.7132006 157.85275 0 1 9.1654,-3.7305 z"
         id="path10423"
         transform="matrix(0.21046499,0,0,0.21046499,1226.5777,818.69408)"
         inkscape:original-d="m 1545.055,1022.2278 16.9788,9.8027 v 19.6056 l -16.9788,-9.8028 z"
         inkscape:path-effect="#path-effect10425" /><path
         style="opacity:1;fill:#546473;fill-opacity:1;stroke:none;stroke-width:3.96899;stroke-linejoin:bevel;stroke-dasharray:none;paint-order:markers fill stroke"
         d="m 1554.2204,1027.5195 a 16.996716,16.996716 62.632377 0 1 7.8134,15.0943 5.7131937,5.7131937 157.85238 0 1 -9.1654,3.7306 16.996845,16.996845 62.632399 0 1 -7.8134,-15.0944 5.7132006,5.7132006 157.85275 0 1 9.1654,-3.7305 z"
         id="path10425"
         transform="matrix(0.21046499,0,0,0.21046499,1167.3216,784.38433)"
         inkscape:original-d="m 1545.055,1022.2278 16.9788,9.8027 v 19.6056 l -16.9788,-9.8028 z"
         inkscape:path-effect="#path-effect10427" /><path
         style="opacity:1;fill:#0c1d24;fill-opacity:1;stroke:none;stroke-width:2.64599;stroke-linejoin:bevel;stroke-dasharray:none;paint-order:markers fill stroke"
         d="m 1568.2872,1044.6851 39.7214,-22.565 c 0.1849,1.3044 -0.2012,2.2123 -0.6976,3.3752 l -39.6174,22.8731 c 0.357,-1.1666 0.8536,-2.2796 0.5936,-3.6833 z"
         id="path10429"
         sodipodi:nodetypes="ccccc" /><path
         style="opacity:1;fill:#222d32;fill-opacity:1;stroke:none;stroke-width:2.64599;stroke-linejoin:bevel;stroke-dasharray:none;paint-order:markers fill stroke"
         d="m 1568.2872,1044.6851 -4.3813,-2.448 c -0.077,1.3773 -0.6217,2.288 -1.1736,3.267 l 4.9613,2.8643 c 0.7308,-2.0507 0.8034,-2.5773 0.5936,-3.6833 z"
         id="path10430"
         sodipodi:nodetypes="ccccc" /><path
         style="opacity:1;fill:#eeffaa;fill-opacity:1;stroke:none;stroke-width:2.64599;stroke-linejoin:bevel;stroke-dasharray:none;paint-order:markers fill stroke"
         d="m 1575.6446,1030.7076 1.0769,-0.6218 a 1.5275794,1.5275794 30.000111 0 1 2.2914,1.3229 l 0,1.2435 a 4.5826971,4.5826971 120.00011 0 1 -2.2914,3.9687 l -1.0769,0.6218 a 1.5275794,1.5275794 30.000111 0 1 -2.2914,-1.3229 v -1.2435 a 4.5826971,4.5826971 120.00011 0 1 2.2914,-3.9687 z"
         id="path10431"
         inkscape:original-d="m 1573.3532,1032.0305 5.6597,-3.2676 v 6.5351 l -5.6597,3.2676 z"
         inkscape:path-effect="#path-effect10431" /><path
         style="opacity:1;fill:#f6ffd5;fill-opacity:1;stroke:none;stroke-width:2.64599;stroke-linejoin:bevel;stroke-dasharray:none;paint-order:markers fill stroke"
         d="m 1575.6446,1030.7076 1.0769,-0.6218 a 1.5275794,1.5275794 30.000111 0 1 2.2914,1.3229 l 0,1.2435 a 4.5826971,4.5826971 120.00011 0 1 -2.2914,3.9687 l -1.0769,0.6218 a 1.5275794,1.5275794 30.000111 0 1 -2.2914,-1.3229 v -1.2435 a 4.5826971,4.5826971 120.00011 0 1 2.2914,-3.9687 z"
         id="path10432"
         transform="matrix(0.65382306,0,0,0.65382306,545.63823,357.83073)"
         inkscape:original-d="m 1573.3532,1032.0305 5.6597,-3.2676 v 6.5351 l -5.6597,3.2676 z"
         inkscape:path-effect="#path-effect10433" /><path
         style="opacity:1;fill:#eeffaa;fill-opacity:1;stroke:none;stroke-width:2.64599;stroke-linejoin:bevel;stroke-dasharray:none;paint-order:markers fill stroke"
         d="m 1575.6446,1030.7076 1.0769,-0.6218 a 1.5275794,1.5275794 30.000111 0 1 2.2914,1.3229 l 0,1.2435 a 4.5826971,4.5826971 120.00011 0 1 -2.2914,3.9687 l -1.0769,0.6218 a 1.5275794,1.5275794 30.000111 0 1 -2.2914,-1.3229 v -1.2435 a 4.5826971,4.5826971 120.00011 0 1 2.2914,-3.9687 z"
         id="path10433"
         transform="translate(27.616257,-15.822469)"
         inkscape:original-d="m 1573.3532,1032.0305 5.6597,-3.2676 v 6.5351 l -5.6597,3.2676 z"
         inkscape:path-effect="#path-effect10435" /><path
         style="opacity:1;fill:#f6ffd5;fill-opacity:1;stroke:none;stroke-width:2.64599;stroke-linejoin:bevel;stroke-dasharray:none;paint-order:markers fill stroke"
         d="m 1575.6446,1030.7076 1.0769,-0.6218 a 1.5275794,1.5275794 30.000111 0 1 2.2914,1.3229 l 0,1.2435 a 4.5826971,4.5826971 120.00011 0 1 -2.2914,3.9687 l -1.0769,0.6218 a 1.5275794,1.5275794 30.000111 0 1 -2.2914,-1.3229 v -1.2435 a 4.5826971,4.5826971 120.00011 0 1 2.2914,-3.9687 z"
         id="path10434"
         transform="matrix(0.65382306,0,0,0.65382306,573.25449,342.00826)"
         inkscape:original-d="m 1573.3532,1032.0305 5.6597,-3.2676 v 6.5351 l -5.6597,3.2676 z"
         inkscape:path-effect="#path-effect10437" /><path
         style="opacity:1;fill:#eb3b38;fill-opacity:1;stroke:none;stroke-width:2.64599;stroke-linejoin:bevel;stroke-dasharray:none;paint-order:markers fill stroke"
         d="m 1575.6446,1030.7076 1.0769,-0.6218 a 1.5275794,1.5275794 30.000111 0 1 2.2914,1.3229 l 0,1.2435 a 4.5826971,4.5826971 120.00011 0 1 -2.2914,3.9687 l -1.0769,0.6218 a 1.5275794,1.5275794 30.000111 0 1 -2.2914,-1.3229 v -1.2435 a 4.5826971,4.5826971 120.00011 0 1 2.2914,-3.9687 z"
         id="path10437"
         transform="matrix(1.5942881,0,0,1.5942881,-921.18164,-625.19963)"
         inkscape:original-d="m 1573.3532,1032.0305 5.6597,-3.2676 v 6.5351 l -5.6597,3.2676 z"
         inkscape:path-effect="#path-effect10439" /></g></g></svg>
