<?xml version="1.0" encoding="UTF-8" standalone="no"?>
<!-- Created with Inkscape (http://www.inkscape.org/) -->

<svg
   width="205.40633mm"
   height="157.4931mm"
   viewBox="0 0 205.40633 157.4931"
   version="1.1"
   id="svg1"
   xml:space="preserve"
   xmlns="http://www.w3.org/2000/svg"
   xmlns:svg="http://www.w3.org/2000/svg"><defs
     id="defs1" /><g
     id="layer1"
     transform="translate(0,-139.5069)"><path
       style="opacity:1;fill:#ffddcc;fill-opacity:1;stroke-width:0.264583;stroke-linejoin:bevel;paint-order:markers fill stroke"
       d="m 20.951714,193.98153 -2.77152,-10.20162 13.540813,-11.07178 21.572039,-11.2034 18.672337,-8.5673 24.735355,-8.83092 20.825152,-3.03151 11.86242,1.05444 15.33329,6.37056 3.86627,4.48136 -1.49521,8.48984 -7.43539,0.22319 -17.8697,-1.55164 -34.793891,3.18057 -19.619495,7.58348 -41.657053,19.71187 -2.541466,3.48591 z"
       id="path8" /><path
       style="opacity:1;fill:#fedccb;fill-opacity:1;stroke-width:0.264583;stroke-linejoin:bevel;paint-order:markers fill stroke"
       d="m 21.088757,195.59822 6.502366,24.0324 10.017159,26.82226 3.646599,8.45747 10.544378,4.08595 11.994232,8.39156 6.150888,8.56731 15.123977,-6.4984 12.423211,-4.00203 27.810803,1.31804 14.11329,6.13707 10.7978,4.09977 10.23684,-8.12798 13.00217,-22.87383 2.71902,-29.52871 -4.34205,-25.3183 -15.59611,-18.64379 -14.83876,-10.74867 -38.19146,-1.62559 -18.584472,3.6466 -34.488905,14.23491 z"
       id="path7" /><path
       style="opacity:1;fill:#daaf9a;fill-opacity:1;stroke-width:0.264583;stroke-linejoin:bevel;paint-order:markers fill stroke"
       d="m 173.45247,246.00781 4.23367,-15.23152 -3.0293,-28.59438 -5.09494,-14.5392 -8.9472,-11.30827 -12.55093,-10.93547 -1.49121,-3.1688 3.98659,-5.81752 17.94649,5.13405 14.29066,11.12187 7.56128,8.365 4.98966,19.2222 5.90315,19.64266 -3.51133,10.96773 -12.31883,17.29353 z"
       id="path6" /><path
       style="opacity:1;fill:#daaf9a;fill-opacity:1;stroke-width:0.264583;stroke-linejoin:bevel;paint-order:markers fill stroke"
       d="M 5.0964496,204.03373 2.9543904e-7,192.54661 6.8968016,188.07764 l 11.8053354,-2.17467 2.112534,6.46187 0.274086,3.23338 z"
       id="path5" /><path
       style="opacity:1;fill:#f6c5ad;fill-opacity:1;stroke-width:0.264583;stroke-linejoin:bevel;paint-order:markers fill stroke"
       d="m 72.66583,277.48761 6.305653,-5.5921 13.669338,-5.46772 26.593069,0.0621 13.60721,3.97653 16.2168,6.02694 -7.54289,12.29521 -28.37489,8.21037 -24.6001,-7.45757 -16.838139,-10.87335 z"
       id="path3" /><path
       style="opacity:1;fill:#ddc2b5;fill-opacity:1;stroke-width:0.264583;stroke-linejoin:bevel;paint-order:markers fill stroke"
       d="m 149.65492,280.22455 c 0.69786,-2.78404 22.60344,-24.13329 23.79755,-34.21674 l 11.96776,2.15188 c 4.21027,-6.74242 6.36693,-17.48936 13.53291,-18.46815 4.09296,1.16383 5.28636,3.1561 3.5802,5.97681 2.31224,6.01969 0.7116,8.95445 -4.80191,8.80428 l -6.63865,14.08057 c -6.74171,5.42657 -6.78386,0.55228 -8.78686,4.27719 -2.38922,4.44314 -6.0743,10.87131 -11.67182,15.01121 -3.86719,2.86016 -9.26426,3.97857 -13.25488,5.25097 -4.09561,-0.12211 -7.91175,0.21887 -7.7243,-2.86802 z"
       id="path2" /><path
       style="opacity:1;fill:#dfbba9;fill-opacity:1;stroke-width:0.264583;stroke-linejoin:bevel;paint-order:markers fill stroke"
       d="m 5.2049282,201.83686 15.8838288,-6.23864 6.502366,24.0324 6.370563,18.36479 7.293195,16.91494 -1.537722,1.27412 -16.387721,-1.27412 -6.853846,-4.56923 -3.998077,-8.87485 -7.3810654,-37.43254 z"
       id="path4" /><path
       style="fill:#000000;stroke-width:3.91437"
       d="m 107.03445,296.58747 c -5.20513,-0.81051 -10.724617,-2.33284 -16.086207,-4.43674 -5.48286,-2.15149 -8.87556,-3.90752 -13.455448,-6.9644 -5.031138,-3.35806 -7.58495,-5.9846 -11.4316,-11.7572 -2.923407,-4.38703 -7.013217,-8.70563 -10.289348,-10.86492 -2.947402,-1.94262 -10.225935,-5.30346 -11.489102,-5.30506 -0.564412,-7.1e-4 -2.098414,0.26852 -3.408867,0.5987 -2.221521,0.5594 -2.645721,0.57839 -6.274419,0.28066 -6.128335,-0.50304 -12.42812,-1.93847 -15.355954,-3.49901 -3.22908,-1.72107 -6.308768,-6.09096 -7.575356,-10.74898 -1.7363587,-6.38559 -7.1100547,-31.5138 -7.5598197,-35.35078 -0.109876,-0.93745 -0.7674,-3.36624 -1.461143,-5.39736 C 1.1152863,198.65737 4.9329544e-4,194.19527 2.9543904e-7,192.54661 -7.0070456e-4,190.21893 1.2459043,188.94113 5.4696683,186.94002 c 2.936896,-1.3914 6.1114567,-2.15705 9.6567587,-2.32912 2.994234,-0.14523 3.053767,-0.16128 3.053767,-0.83099 0,-1.90316 1.459312,-3.75587 5.492775,-6.97344 5.848732,-4.66562 8.680621,-6.30241 26.039123,-15.0504 14.335435,-7.22443 18.719214,-9.18957 28.265106,-12.67038 14.715995,-5.36605 20.782755,-7.10423 29.410052,-8.42619 6.83242,-1.04697 11.33856,-1.35797 14.85214,-1.02505 5.21026,0.49368 7.13777,1.00525 10.75316,2.85396 1.82288,0.93213 5.02268,2.25691 7.1106,2.944 4.58009,1.50715 6.39702,2.39614 8.10815,3.96725 1.68838,1.55017 2.33198,2.99078 2.33985,5.23755 l 0.008,1.77544 1.91749,7.8e-4 c 2.56983,0.001 6.56714,0.50891 9.09747,1.15576 7.11405,1.81861 15.10304,6.5148 20.97326,12.32873 7.36034,7.28985 10.47598,14.82273 16.74614,40.48827 2.174,8.899 2.48445,11.59812 1.71183,14.88392 l -0.46057,1.95867 1.71317,1.78405 c 3.93186,4.09466 4.15737,7.822 0.8091,13.37136 -1.21123,2.00745 -4.85942,5.95309 -5.70191,6.16682 -0.52558,0.13348 -0.79735,0.64978 -1.47434,2.80179 -0.4565,1.45109 -1.45482,3.88681 -2.21855,5.41271 -2.38154,4.75846 -4.96647,6.75909 -9.32117,7.21426 l -1.65515,0.17301 -0.79528,2.2845 c -2.02561,5.81887 -9.50139,13.18963 -15.99392,15.76923 -1.32376,0.52598 -3.30517,1.5396 -4.40307,2.25253 -3.05979,1.98681 -4.38629,1.97303 -10.09226,-0.10452 -1.48429,-0.54045 -2.92803,-1.11043 -3.20834,-1.26661 -0.42615,-0.2376 -0.86214,0.0908 -2.66059,2.00248 -5.99126,6.36871 -12.61515,9.46098 -24.37755,11.38016 -4.02977,0.6575 -10.32325,0.70964 -14.12872,0.11704 z m 14.01497,-2.99465 c 7.61294,-1.28696 13.01543,-3.12088 16.98777,-5.7666 2.49795,-1.66377 7.0124,-6.10368 8.75707,-8.61255 l 1.20809,-1.73728 -1.28227,-0.71668 c -2.1255,-1.18797 -4.657,-2.0902 -7.95165,-2.83396 -4.0181,-0.90704 -5.78766,-1.58638 -8.63067,-3.31313 -2.90818,-1.76632 -4.09114,-2.1556 -7.27732,-2.39453 -1.40612,-0.1053 -4.15452,-0.37226 -6.10751,-0.59283 -1.953,-0.22038 -6.25845,-0.5551 -9.56766,-0.74342 -6.9159,-0.39347 -9.808307,-0.16675 -15.027137,1.17736 -5.07729,1.30783 -14.438109,5.62248 -17.972901,8.28429 l -1.519401,1.14413 1.093283,1.12558 c 2.687997,2.7675 7.043945,5.65803 12.740209,8.45429 12.38972,6.08203 24.095087,8.29275 34.550097,6.52533 z m 38.88616,-11.53454 c 0.8572,-0.57753 2.91851,-1.64658 4.58067,-2.37567 3.99704,-1.75333 6.86459,-3.78199 9.85775,-6.97396 3.97567,-4.23973 5.42273,-7.17359 5.6592,-11.4738 0.13308,-2.4199 0.5363,-3.40886 1.38999,-3.40886 0.68517,0 1.45399,1.05085 1.65973,2.26865 0.2012,1.19184 0.20198,1.19231 1.23733,1.00603 2.27214,-0.40882 3.35188,-0.89216 4.44676,-1.99061 1.51467,-1.51964 2.95794,-4.3518 4.41815,-8.66994 1.34341,-3.97265 1.75008,-7.32089 1.12076,-9.22765 -0.31471,-0.95335 -0.29201,-1.11885 0.22469,-1.63523 0.42216,-0.42216 0.77469,-0.52429 1.32928,-0.38517 0.94998,0.23838 1.52789,1.54476 1.63354,3.6923 0.0431,0.87252 0.14992,1.5872 0.238,1.58826 0.27204,0.003 1.55705,-1.49239 2.55471,-2.97394 1.33938,-1.98901 2.24242,-4.33196 2.2472,-5.83034 0.004,-1.48621 -1.07845,-3.58098 -2.61022,-5.04793 l -0.96998,-0.92888 -2.42816,2.34925 c -2.33735,2.26137 -2.52097,2.53522 -4.90768,7.32049 -2.9346,5.88381 -4.17342,7.64265 -6.19707,8.79841 -2.66569,1.52241 -5.12172,1.44511 -9.3391,-0.29397 -1.54394,-0.63667 -2.10918,-0.76318 -2.19373,-0.49098 -0.16675,0.53666 -4.70738,9.31311 -6.36085,12.2946 -1.78252,3.21428 -5.63524,9.25322 -6.97935,10.9398 -2.10918,2.64662 -5.01971,5.41886 -6.85038,6.52498 -1.04224,0.6297 -2.02314,1.14495 -2.17984,1.14495 -0.36325,0 -1.74134,1.4399 -1.86206,1.94548 -0.11391,0.47744 6.26264,2.84508 7.7243,2.86802 0.69781,0.0117 1.46683,-0.30023 2.55663,-1.03433 z m -7.1119,-7.77461 c 4.42519,-3.0206 9.02508,-9.65392 15.64792,-22.56519 3.59319,-7.005 4.55969,-9.60332 5.34683,-14.37447 1.39066,-8.42951 1.47118,-15.60733 0.31354,-27.95219 -0.65518,-6.98671 -1.42107,-10.86245 -2.97527,-15.05575 -3.05356,-8.23861 -6.79926,-13.09893 -15.76269,-20.45317 -2.0947,-1.7186 -5.35345,-4.40307 -7.24174,-5.96549 -5.83241,-4.82583 -4.88564,-4.36605 -11.19877,-5.43859 -10.11305,-1.71809 -19.95557,-1.87083 -33.12589,-0.51399 -5.572767,0.57412 -14.829707,2.13301 -16.855427,2.8385 -0.25326,0.0881 0.23016,0.86414 1.45383,2.33328 5.00813,6.01372 7.53646,11.3429 9.31781,19.64007 0.65996,3.07407 1.05237,4.22783 2.00329,5.88983 1.999457,3.49459 4.497417,6.54878 10.191997,12.46151 7.46411,7.75002 11.75422,13.31954 11.58594,15.041 -0.0701,0.71711 -0.22507,0.88582 -0.88339,0.96129 -1.04146,0.11939 -1.33312,-0.14992 -3.34659,-3.08957 -2.26497,-3.30702 -4.61954,-6.02938 -10.06615,-11.63863 -2.50692,-2.5818 -5.38097,-5.75585 -6.38676,-7.05338 -1.005757,-1.29758 -1.856347,-2.25315 -1.890127,-2.12355 -0.0352,0.12957 -0.20551,1.64181 -0.38166,3.36045 -0.17614,1.71864 -0.69194,5.1701 -1.14632,7.66993 -1.56461,8.60821 -1.62935,13.25182 -0.25561,18.32257 1.16676,4.30612 4.436547,9.85791 6.922837,11.7543 1.63425,1.24649 1.96849,2.77595 0.68024,3.11283 -2.48449,0.64974 -7.508347,-5.72947 -9.790927,-12.43231 -1.81925,-5.34222 -2.09525,-11.51831 -0.83243,-18.62688 0.40243,-2.26544 0.94215,-5.33344 1.19936,-6.81769 0.57557,-3.32154 0.66031,-10.14918 0.16205,-13.0673 -0.20002,-1.17177 -0.4988,-2.89753 -0.66399,-3.83494 -1.09289,-6.20197 -4.87265,-13.69474 -9.24809,-18.33295 -0.98853,-1.04788 -1.79728,-2.04945 -1.79728,-2.22575 0,-0.17615 -0.15971,-0.31902 -0.35503,-0.31745 -0.79787,0.008 -8.265466,2.30532 -10.89005,3.35132 -6.16701,2.45776 -26.776081,12.44671 -32.654288,15.82712 -2.171183,1.24857 -16.588154,10.57788 -17.141333,11.09223 -0.161272,0.14992 0.505228,4.37168 1.287358,8.15656 0.701768,3.39607 1.36995,5.46853 6.751541,20.94043 4.285686,12.32125 7.702029,21.19384 9.678042,25.13502 l 1.707369,3.40526 1.846447,0.48304 c 2.285364,0.59788 6.701751,2.42088 10.079263,4.16058 5.340295,2.7507 10.168668,7.27755 14.088439,13.20864 1.258391,1.90411 2.395867,3.50074 2.527821,3.5481 0.131914,0.0474 0.915414,-0.42521 1.741111,-1.05014 2.917457,-2.20818 10.78906,-6.12517 15.7542,-7.83946 3.08977,-1.06683 8.22933,-2.12108 11.33472,-2.32506 2.880737,-0.18907 12.119547,0.28966 17.338727,0.89874 1.87487,0.21881 4.46348,0.48534 5.75244,0.59232 l 2.34361,0.19454 v -0.70854 c 0,-0.8096 0.39379,-1.3604 3.50633,-4.90423 4.80912,-5.47546 8.8033,-11.31891 10.51192,-15.37885 3.32326,-7.89661 3.05943,-16.53911 -0.79191,-25.94255 -0.68314,-1.66788 -2.71959,-5.96394 -4.5254,-9.54676 -1.80586,-3.58282 -3.68104,-7.72864 -4.16704,-9.21289 -1.59476,-4.8703 -1.4174,-8.23807 0.4339,-8.23807 0.927,0 1.18347,0.59283 1.35163,3.12477 0.19885,2.99511 0.85925,4.70471 5.48568,14.20356 4.27633,8.78004 5.66155,12.38189 6.66233,17.32354 0.33155,1.63789 0.64474,3.01962 0.69562,3.07051 0.17615,0.17615 2.68863,-4.07482 3.69141,-6.24518 1.28669,-2.78488 1.67543,-4.51009 2.55049,-11.31922 0.88065,-6.853 2.32505,-12.05445 3.74037,-13.46977 0.68592,-0.68591 1.77912,-0.55173 2.15075,0.26383 0.26579,0.58367 0.19689,0.98047 -0.40713,2.34357 -1.33406,3.00988 -1.93523,5.57179 -2.65148,11.29937 -1.16327,9.30176 -1.86543,11.34036 -6.31086,18.32261 -0.84554,1.32803 -1.7754,2.60635 -2.0664,2.8407 -0.40369,0.32528 -0.60277,1.09109 -0.8399,3.23166 -0.91221,8.23411 -4.41764,14.79334 -13.59433,25.43725 -2.04197,2.36851 -3.14649,3.85957 -2.91585,3.93645 0.43438,0.14483 2.34048,1.13673 5.76461,2.99997 1.92105,1.04533 3.26298,1.52018 6.20392,2.19526 4.08558,0.9378 5.18024,1.32063 8.80017,3.07743 1.31977,0.64047 2.50367,1.16453 2.63084,1.16453 0.12722,0 0.99257,-0.51963 1.92302,-1.15474 z M 82.139933,262.74204 c -0.602069,-0.23995 -5.472013,-6.92913 -7.367898,-10.12032 -3.552681,-5.97994 -5.680375,-13.01688 -5.770249,-19.08384 -0.04541,-3.06468 -0.05402,-3.07697 -3.239648,-4.63571 -5.945222,-2.90904 -8.655961,-5.67716 -13.374106,-13.65715 -1.333899,-2.25613 -3.001537,-4.61853 -4.096308,-5.80294 -2.974646,-3.21819 -6.759566,-5.3644 -10.594708,-6.00757 -2.257651,-0.37852 -1.947476,-2.70687 0.360513,-2.70687 1.354489,0 3.729102,0.71402 5.688948,1.71054 5.025031,2.55511 7.51727,5.31869 13.056415,14.47788 0.853332,1.41105 2.110001,3.20399 2.792628,3.98432 1.949434,2.22849 5.352155,4.66792 8.128264,5.8272 l 1.109606,0.46335 -0.174581,-2.64999 c -0.558384,-8.46784 -3.699626,-17.36719 -10.260303,-29.06795 -2.057431,-3.66936 -2.424247,-4.72855 -1.869228,-5.39728 0.477513,-0.57542 1.520458,-0.53952 2.042595,0.0705 0.738485,0.86249 5.655793,9.95889 7.240721,13.39442 1.923599,4.16966 3.8279,9.96355 4.773259,14.52289 0.586177,2.82711 0.791015,4.92197 1.013195,10.36125 0.417898,10.23181 1.07927,13.58717 3.821285,19.38725 1.44358,3.05352 3.373285,6.08105 6.6262,10.39589 1.27726,1.69422 2.32232,3.31958 2.32232,3.61191 0,0.82898 -1.2084,1.32904 -2.22888,0.92238 z m 65.363727,-2.26348 c -0.19533,-0.0787 -0.35503,-0.56402 -0.35503,-1.07829 0,-0.73281 0.43617,-1.48022 2.01711,-3.45619 3.87057,-4.83781 6.72113,-9.68157 9.32199,-15.84016 1.51275,-3.58196 2.07047,-4.43549 2.89847,-4.43549 0.86003,0 1.20113,1.01155 0.83345,2.47165 -0.5641,2.24023 -3.27077,8.13218 -5.33787,11.61953 -1.70987,2.88473 -5.02327,7.57309 -6.82564,9.65808 -0.87126,1.00791 -1.76409,1.37899 -2.55244,1.06087 z m -30.21885,-5.11005 c -0.51305,-0.61722 -0.68329,-5.39612 -0.27205,-7.64152 0.62313,-3.40299 1.89006,-6.65297 4.92236,-12.62669 1.7051,-3.35916 3.30181,-6.33126 3.54826,-6.60468 0.2466,-0.27322 0.80926,-0.49712 1.2508,-0.49712 0.63683,0 0.84288,0.15971 0.99683,0.77328 0.15814,0.62986 -0.36599,1.88094 -2.8259,6.74669 -1.66098,3.28537 -3.28764,6.66899 -3.6148,7.51915 -1.09469,2.84473 -1.69246,5.98875 -1.69457,8.91259 -0.001,1.53357 -0.13426,3.03563 -0.29593,3.33782 -0.36012,0.67284 -1.48495,0.71778 -2.01472,0.0806 z m 21.88097,-62.80788 c -0.1644,-0.42968 -0.41371,-2.76261 -0.55423,-5.18431 -0.14053,-2.4217 -0.46785,-5.95446 -0.72741,-7.85054 -0.56907,-4.1573 -0.44925,-4.93269 0.76216,-4.93269 0.70357,0 0.9317,0.1691 1.24548,0.92324 0.63538,1.52707 1.31284,6.88984 1.48022,11.71794 0.17771,5.13044 -0.0118,6.10755 -1.1832,6.10755 -0.52824,0 -0.80507,-0.21138 -1.02302,-0.78119 z m -21.39081,-8.46393 c -0.24152,-0.24151 -0.57807,-0.97643 -0.74815,-1.63342 -1.01183,-3.90807 -1.29699,-4.79604 -2.13095,-6.6354 -1.58363,-3.49287 -3.87397,-5.48079 -6.99693,-6.07307 -1.71657,-0.32567 -2.22481,-0.68036 -2.22481,-1.5533 0,-1.03261 0.66932,-1.35985 2.50903,-1.22676 3.55069,0.25678 7.12263,2.99453 9.00019,6.89817 1.20258,2.50027 2.79991,8.48588 2.54145,9.52354 -0.2881,1.15729 -1.17451,1.47556 -1.94983,0.70024 z m -78.135527,71.11343 c 0.105688,-0.10569 -0.0732,-0.56476 -0.397504,-1.0202 -1.706704,-2.39685 -5.796553,-12.67625 -10.985871,-27.6118 -1.764245,-5.07776 -3.472984,-9.90366 -3.797133,-10.72419 -1.745417,-4.4178 -3.073875,-9.68638 -4.440823,-17.61192 -0.114731,-0.66525 -0.311428,-0.92321 -0.703988,-0.92321 -1.521076,0 -8.946144,3.65137 -10.6259557,5.22541 -1.316735,1.23385 -1.866394,2.56697 -1.86924,4.53351 -0.0034,2.36979 6.5176027,32.87995 7.9702217,37.29046 1.087532,3.30205 3.275445,6.32684 5.521572,7.63357 2.907946,1.69175 12.245319,3.57765 17.096161,3.45298 1.12221,-0.0274 2.126872,-0.13896 2.23256,-0.24465 z M 184.30174,245.5263 c 1.24735,-0.83537 2.58497,-2.89053 4.41349,-6.78106 2.15646,-4.58834 3.57624,-6.68922 6.16544,-9.1231 3.13639,-2.94826 3.551,-3.91069 3.51397,-8.15727 -0.0274,-3.15302 -0.12331,-3.63797 -2.74538,-13.91949 -4.68026,-18.3508 -6.8797,-24.66444 -10.48973,-30.11156 l -1.22375,-1.84648 -0.18045,4.06049 c -0.14718,3.31531 -0.27244,4.16242 -0.68317,4.61614 -0.27675,0.30571 -0.72311,0.55568 -0.99222,0.55568 -1.02971,0 -1.23768,-0.75273 -1.16409,-4.21292 0.0391,-1.82323 -0.0908,-4.64091 -0.2881,-6.26154 l -0.35856,-2.94662 -2.00173,-1.6939 c -4.22188,-3.57265 -10.46721,-7.17978 -15.06902,-8.70352 -3.69407,-1.2232 -9.5931,-2.01391 -12.15647,-1.62951 -1.07731,0.16166 -1.39449,0.36677 -2.01398,1.30289 l -0.73531,1.1111 1.06126,0.16283 c 2.49287,0.38244 5.97787,1.32744 7.32492,1.98647 0.79845,0.39065 2.43145,1.60336 3.62886,2.69488 3.13901,2.86141 5.1643,3.77349 8.33862,3.75517 1.44522,-0.008 1.95511,0.10648 2.38518,0.53639 0.6537,0.6537 0.67069,0.83721 0.14444,1.558 -0.31472,0.43101 -0.85744,0.58242 -2.48562,0.69347 l -2.08292,0.14209 4.3325,4.26106 c 3.47839,3.421 4.33246,4.4131 4.33211,5.03228 -4.7e-4,0.85759 -0.84871,1.49247 -1.64458,1.23095 -0.26735,-0.0881 -2.48155,-2.10832 -4.92005,-4.48986 -3.58654,-3.50266 -4.53147,-4.59113 -4.94545,-5.69662 -0.38791,-1.03594 -0.7586,-1.49325 -1.53181,-1.88982 -0.56105,-0.28771 -1.97883,-1.37504 -3.1506,-2.41622 -1.1718,-1.04115 -2.65586,-2.20571 -3.29789,-2.58787 -1.23365,-0.73437 -5.46278,-1.92916 -6.27485,-1.77278 -0.31276,0.0603 1.24633,1.49228 4.47549,4.11126 11.36467,9.21721 14.22333,12.34577 17.76348,19.44052 4.19769,8.41264 5.90268,18.42415 5.92867,34.8131 l 0.0117,7.42536 0.8522,-0.5913 c 1.89639,-1.31578 5.45721,-5.19574 6.22666,-6.78474 1.15728,-2.38988 1.17967,-3.28666 0.19181,-7.69342 -1.13631,-5.06973 -1.35031,-7.96926 -0.78421,-10.62739 0.5212,-2.44734 1.13998,-3.49944 2.05822,-3.49944 1.17904,0 1.37386,0.89052 0.81943,3.74503 -0.65695,3.38217 -0.5942,3.94055 1.5259,13.58333 l 0.21881,0.99425 1.41187,-2.13055 c 1.46006,-2.20321 2.25229,-2.69477 3.14673,-1.95245 0.65334,0.54225 0.31041,1.96344 -0.92231,3.82038 -1.35073,2.03496 -3.67751,4.58592 -4.38879,4.8117 -0.30219,0.0959 -1.00035,0.85365 -1.55142,1.6838 -1.18691,1.78817 -4.91832,5.42939 -7.56984,7.38681 l -1.88982,1.39512 -0.19845,1.86696 c -0.15932,1.49936 -0.82605,4.55131 -1.60317,7.33956 -0.0951,0.34211 2.48038,1.42467 4.87111,2.04764 1.3799,0.35973 3.09361,0.0963 4.20087,-0.64517 z m -4.52877,-2.59676 c -0.37461,-0.82193 0.0352,-1.71515 2.62505,-5.71333 1.9912,-3.07477 2.80422,-3.90118 3.71153,-3.77275 0.52194,0.074 0.68646,0.2971 0.75661,1.02635 0.0888,0.92512 -0.0728,1.22285 -4.3978,8.08736 -0.53305,0.84601 -0.84699,1.06526 -1.52543,1.06526 -0.62986,0 -0.93721,-0.18202 -1.16996,-0.69289 z m -0.71242,-45.0422 c -0.86871,-0.35034 -1.1152,-1.33355 -0.5037,-2.00925 0.33429,-0.36912 0.8751,-0.54922 1.65903,-0.55224 0.6398,-0.002 1.93025,-0.18945 2.86771,-0.41598 3.19189,-0.7707 4.70612,-0.41375 4.25636,1.00337 -0.24699,0.77869 -2.02701,1.5692 -4.4001,1.95421 -2.17259,0.3523 -3.0435,0.35699 -3.8793,0.0196 z M 11.960674,197.18303 c 2.022942,-1.01253 4.569481,-2.11173 5.658975,-2.44265 2.305504,-0.70028 2.234877,-0.46827 1.373716,-4.51256 l -0.607189,-2.8515 h -2.269378 c -4.261338,0 -10.8512167,2.14222 -12.7248177,4.13659 -0.640292,0.68157 -0.652497,0.77884 -0.332134,2.64709 0.182919,1.06674 0.740403,3.23041 1.238835,4.80817 l 0.906247,2.86869 1.538832,-1.4064 c 0.997569,-0.91173 2.832543,-2.05398 5.2169057,-3.24743 z M 25.7167,190.61867 c 9.284686,-6.29994 15.670744,-9.97338 26.267957,-15.11013 15.836517,-7.67631 21.29663,-9.9906 27.373061,-11.60215 l 3.084955,-0.81818 -0.15853,-1.73309 c -0.21216,-2.31953 -0.856155,-3.82382 -2.52759,-5.90494 -0.766982,-0.95499 -1.465109,-2.08784 -1.551421,-2.51752 -0.08612,-0.42965 -0.20981,-0.7812 -0.274397,-0.7812 -0.376563,0 -7.330047,2.73599 -10.464007,4.11733 -3.432471,1.51295 -16.294773,7.67968 -16.549794,7.9347 -0.06263,0.0626 0.652565,1.02627 1.589077,2.14167 2.11509,2.51909 3.053208,4.39501 2.700915,5.40116 -0.278703,0.79626 -1.310179,1.10002 -1.945285,0.57291 -0.21803,-0.18084 -0.770191,-0.99127 -1.227037,-1.80077 -0.456846,-0.80949 -1.553809,-2.20664 -2.437712,-3.10475 l -1.607083,-1.63296 -5.381474,2.71328 -5.381474,2.71329 -0.960077,1.63812 c -1.030066,1.75751 -1.691868,3.54881 -2.197526,5.94804 -0.37304,1.77082 -1.255025,2.58356 -2.2344,2.05939 -0.762402,-0.40804 -0.782287,-2.0177 -0.05715,-4.6325 0.291621,-1.05124 0.442089,-1.91135 0.334679,-1.91135 -0.628726,0 -8.447951,5.92737 -10.066386,7.63083 -1.182961,1.24512 -1.260935,2.84195 -0.346422,7.09941 0.408152,1.90043 0.742086,3.52446 0.742086,3.60897 0,0.1875 0.09355,0.12957 3.275466,-2.02956 z m 68.635833,-30.2156 c 6.037277,-1.02173 11.219787,-1.57718 18.991527,-2.03547 8.51688,-0.50225 15.88619,-0.0716 24.98972,1.45959 l 6.95122,1.16938 0.76944,-0.9427 c 1.01472,-1.24309 1.66224,-3.32271 1.66224,-5.33838 0,-1.49149 -0.0951,-1.73978 -1.10464,-2.88677 -0.60754,-0.69022 -1.73523,-1.55028 -2.50597,-1.9113 l -1.40135,-0.65637 -1.95174,2.02166 c -2.01868,2.09098 -2.96635,2.60478 -3.69266,2.00196 -0.81607,-0.67726 -0.48111,-1.682 1.12068,-3.3613 l 1.54309,-1.61774 -2.60834,-0.89866 c -1.43462,-0.49426 -3.75885,-1.53858 -5.16501,-2.32075 -1.79642,-0.99922 -3.2108,-1.55459 -4.7567,-1.86774 -2.1942,-0.44451 -6.72908,-0.99526 -8.27181,-1.00458 -0.95044,-0.004 -0.94786,0.0853 0.11156,3.89957 0.62951,2.26638 0.6339,2.36048 0.13505,2.9117 -0.2834,0.31315 -0.66517,0.56966 -0.84809,0.56966 -0.73152,0 -1.54304,-1.42025 -2.39414,-4.19006 -0.49208,-1.60144 -1.04279,-2.91174 -1.22379,-2.91174 -0.68619,0 -10.30963,1.47032 -10.4334,1.59405 -0.0712,0.0712 -0.0963,1.24391 -0.0552,2.60568 0.0693,2.29707 0.008,2.60728 -0.83858,4.29387 -0.99887,1.98858 -4.831067,6.12125 -6.454787,6.96088 -1.06952,0.5531 -1.93323,0.38987 -2.18813,-0.41324 -0.28653,-0.90242 0.0603,-1.49126 1.58332,-2.68804 1.65092,-1.2973 4.356257,-4.47655 4.798037,-5.63845 0.1644,-0.43242 0.29906,-1.60881 0.29906,-2.61421 0,-1.55181 -0.0752,-1.82785 -0.49713,-1.82723 -1.289937,0.002 -13.056917,3.65927 -19.180557,5.9617 l -1.639143,0.61632 1.468788,1.7529 c 1.857405,2.2167 2.973555,4.56004 3.410475,7.16043 l 0.3425,2.03872 2.01101,-0.52253 c 1.10605,-0.28731 4.26658,-0.90422 7.02344,-1.37081 z"
       id="path1" /></g></svg>
