<?xml version="1.0" encoding="UTF-8" standalone="no"?>
<!-- Created with Inkscape (http://www.inkscape.org/) -->

<svg
   version="1.1"
   id="svg1"
   width="52"
   height="52"
   viewBox="0 0 52 52"
   xml:space="preserve"
   xmlns="http://www.w3.org/2000/svg"
   xmlns:svg="http://www.w3.org/2000/svg"><defs
     id="defs1" /><g
     id="g1"><g
       id="g2"
       transform="matrix(0.12668952,0,0,0.12668952,-2.0942879,-2.2797664)"><path
         id="path2"
         style="fill:#000000;fill-opacity:1;stroke-width:0.471685"
         d="m 306.15449,124.55404 c -51.02176,-0.10649 -61.60832,-0.0178 -65.56349,0.55294 -26.03869,3.75776 -48.29213,25.65158 -52.41748,51.57158 -0.13942,0.87601 -0.36526,2.04359 -0.5035,2.59442 -0.5735,2.28494 -0.71236,33.07626 -0.17211,38.20219 0.42552,4.03729 1.14592,7.77354 2.14035,11.34256 3.50193,0.003 8.53158,-0.007 11.30045,0.004 -0.69695,-1.90616 -1.3029,-3.7438 -1.59473,-5.05518 -0.24277,-1.09101 -0.59394,-2.61989 -0.77997,-3.39819 -0.186,-0.77827 -0.42774,-9.01387 -0.53646,-18.30006 -0.22334,-19.07256 0.17132,-23.36567 2.89468,-31.51384 4.80029,-14.36226 17.73366,-27.51527 31.76284,-32.30296 9.14186,-3.11982 6.85527,-3.02285 71.37484,-3.02285 38.84561,0 59.62836,0.16973 62.08291,0.50534 2.02934,0.27746 5.49392,1.10818 7.69903,1.8474 17.64667,5.91553 31.04745,21.32301 34.74358,39.94523 0.68162,3.43419 0.83031,6.84863 0.84772,19.49382 0.025,18.01867 -0.0985,20.68737 -1.19194,25.70615 -2.65936,12.20615 -9.66276,22.95367 -20.09803,30.84554 -1.76971,1.33841 -5.86966,3.72925 -9.11249,5.31334 -3.24284,1.5841 -6.37638,3.316 -6.96301,3.8486 -1.9764,1.79441 -2.1547,3.87777 -1.08573,12.74871 1.10686,9.18527 1.43605,11.83491 1.67346,13.51587 0.0917,0.64857 0.3159,2.51404 0.49802,4.1452 l 0.32956,2.96611 -4.41985,-2.76654 c -2.43098,-1.52133 -11.52991,-7.22853 -20.2207,-12.68279 -8.69079,-5.45426 -17.55116,-11.03101 -19.68974,-12.39168 -2.13852,-1.36067 -4.8793,-2.77211 -6.08965,-3.13637 -1.80882,-0.54438 -8.81111,-0.66096 -39.32637,-0.66096 -3.95753,0 -6.05183,-0.0164 -9.2956,-0.0202 1.62634,3.32608 2.95485,6.78725 3.93832,10.36119 1.73745,0.002 1.8984,0.017 3.81015,0.0183 l 38.29739,0.0275 9.10701,5.72346 c 15.5573,9.7774 32.05132,20.22062 35.9941,22.78949 10.68564,6.96217 13.74094,8.13875 16.60463,6.39724 2.31828,-1.40981 2.67525,-2.98115 2.06894,-9.07954 -1.08483,-10.91173 -1.48723,-14.45317 -2.404,-21.10321 -1.29388,-9.38576 -1.32961,-9.05817 1.0656,-10.04444 2.67166,-1.10008 9.31447,-5.07691 12.57844,-7.53058 9.34266,-7.02332 18.25525,-19.29888 21.90515,-30.17177 2.87214,-8.55586 3.22463,-11.53848 3.47326,-29.34053 0.21424,-15.33871 0.075,-18.75667 -1.11686,-27.17637 -0.71238,-5.03258 -3.66729,-13.43461 -6.60414,-18.77794 -2.67393,-4.86488 -7.34373,-10.92976 -11.39016,-14.79569 -9.66543,-9.23432 -19.32028,-14.14218 -32.8797,-16.71082 -1.03772,-0.19658 -29.2687,-0.41352 -62.73472,-0.48336 z" /><path
         style="fill:#0b5400;fill-opacity:1;stroke-width:0.471685"
         d="m 80.486882,419.27619 c -2.318279,-1.40981 -2.676669,-2.98152 -2.070366,-9.07991 1.084834,-10.91172 1.488493,-14.45365 2.405264,-21.10369 1.293881,-9.38576 1.328829,-9.05676 -1.066386,-10.04302 -2.671662,-1.1001 -9.314728,-5.07746 -12.578698,-7.53112 -9.342665,-7.02333 -18.255282,-19.29975 -21.905184,-30.17263 -2.872132,-8.55588 -3.225094,-11.53704 -3.47372,-29.33909 -0.214241,-15.33871 -0.07359,-18.75721 1.118272,-27.17691 0.712383,-5.03258 3.667169,-13.43388 6.604013,-18.77722 2.673931,-4.86488 7.34314,-10.931 11.389575,-14.79693 9.665432,-9.23431 19.320683,-14.14114 32.880104,-16.70978 1.03772,-0.19658 29.268054,-0.41456 62.734084,-0.4844 51.02174,-0.10649 61.60899,-0.0171 65.56416,0.55372 26.03869,3.75777 48.29119,25.65153 52.41654,51.57152 0.13943,0.87601 0.36662,2.04343 0.50486,2.59426 0.57349,2.28494 0.71161,33.07636 0.17134,38.20229 -1.28458,12.18811 -4.98954,21.79621 -12.15373,31.51819 -9.29675,12.61596 -24.64924,22.13924 -40.46733,25.10222 -3.14765,0.5896 -10.1248,0.71142 -42.07069,0.73454 l -38.29721,0.0278 -9.10708,5.7236 c -15.55731,9.7774 -32.05037,20.21989 -35.993144,22.78876 -10.685643,6.96217 -13.740978,8.13941 -16.604674,6.39789 z m 33.349468,-29.10864 c 8.69081,-5.45426 17.55117,-11.03012 19.68974,-12.39077 2.13852,-1.36068 4.87858,-2.77199 6.08893,-3.13626 1.80882,-0.54437 8.81177,-0.66229 39.32705,-0.66229 39.72649,0 41.30895,-0.0793 48.5703,-2.43378 12.46409,-4.04146 24.68529,-14.12124 30.86595,-25.45759 1.82906,-3.35484 4.23829,-9.58165 4.95728,-12.81244 0.24277,-1.09102 0.59361,-2.62044 0.77964,-3.39872 0.186,-0.77828 0.42717,-9.01285 0.53589,-18.29903 0.22334,-19.07257 -0.171,-23.36601 -2.89436,-31.51419 -4.80028,-14.36226 -17.73298,-27.51515 -31.76216,-32.30283 -9.14185,-3.11982 -6.85626,-3.02303 -71.37584,-3.02303 -38.84559,0 -59.62812,0.16889 -62.082674,0.5045 -2.02933,0.27746 -5.493906,1.10928 -7.699028,1.84849 -17.646672,5.91554 -31.047555,21.32247 -34.743682,39.94468 -0.681625,3.4342 -0.830021,6.84783 -0.847429,19.49303 -0.02503,18.01866 0.09907,20.68801 1.19247,25.70681 2.659364,12.20613 9.661091,22.95268 20.096361,30.84455 1.769712,1.33842 5.870913,3.72957 9.113743,5.31366 3.242831,1.58411 6.376058,3.31595 6.962684,3.84854 1.976411,1.79443 2.153661,3.87781 1.084691,12.74874 -1.106861,9.18527 -1.434681,11.83523 -1.672086,13.5162 -0.09168,0.64857 -0.315549,2.5138 -0.497664,4.14495 l -0.331073,2.96573 4.419913,-2.76605 c 2.43098,-1.52133 11.530574,-7.22864 20.221354,-12.6829 z"
         id="path1" /><path
         id="path4"
         style="fill:#0b5400;fill-opacity:1;stroke-width:0.471685"
         d="m 143.09258,25.95395 c -33.46603,0.06984 -61.69701,0.28862 -62.734728,0.485194 -13.559422,2.568645 -23.21426,7.474675 -32.879692,16.708996 -4.046445,3.865922 -8.714407,9.932634 -11.388338,14.797513 -2.936844,5.343332 -5.891761,13.743532 -6.604135,18.776107 -1.191898,8.419702 -1.332935,11.839489 -1.118694,27.17821 0.248626,17.80204 0.601129,20.78281 3.473252,29.33869 3.649911,10.87288 12.562491,23.14844 21.905155,30.17177 3.26397,2.45366 9.906774,6.43232 12.578436,7.53242 2.395215,0.98626 2.361308,0.65684 1.067426,10.04261 -0.916761,6.65003 -1.321001,10.19149 -2.405826,21.1032 -0.606303,6.09839 -0.24751,7.66973 2.070769,9.07954 2.863696,1.74152 5.918994,0.56493 16.604633,-6.39724 3.942774,-2.56887 20.434972,-13.01208 35.992282,-22.78948 l 9.107,-5.72347 38.29741,-0.0275 c 7.63507,-0.006 10.1456,-0.0533 15.21679,-0.0751 0.0618,-1.25017 0.12991,-2.18337 0.20872,-2.49738 0.13824,-0.55083 0.36408,-1.7184 0.5035,-2.59442 0.28107,-1.76597 0.66289,-3.50864 1.10771,-5.23277 -5.23217,0.0236 -10.67193,0.0403 -18.58386,0.0403 -30.51527,0 -37.51756,0.1166 -39.32638,0.66096 -1.21035,0.36427 -3.95112,1.7757 -6.08964,3.13637 -2.13857,1.36066 -10.99894,6.93742 -19.68974,12.39168 -8.690791,5.45426 -17.789732,11.16147 -20.220709,12.6828 l -4.419852,2.76652 0.331401,-2.96609 c 0.182115,-1.63115 0.406367,-3.49664 0.498011,-4.14521 0.237404,-1.68097 0.564765,-4.3306 1.671629,-13.51587 1.068972,-8.87093 0.890663,-10.95429 -1.085734,-12.74871 -0.586636,-0.53259 -3.718334,-2.26448 -6.961165,-3.84859 -3.242831,-1.58409 -7.344622,-3.97492 -9.114334,-5.31334 -10.43527,-7.89181 -17.436848,-18.63935 -20.096202,-30.84549 -1.093402,-5.01879 -1.218774,-7.68748 -1.193763,-25.70614 0.01744,-12.645198 0.166094,-16.059637 0.847719,-19.493831 3.696127,-18.622213 17.096907,-34.027863 34.743579,-39.943397 2.205122,-0.739209 5.669702,-1.571765 7.699027,-1.849232 2.454563,-0.335608 23.237323,-0.505334 62.082923,-0.505334 64.51957,0 62.23481,-0.09514 71.37666,3.024683 14.02918,4.787689 26.96073,17.938869 31.76101,32.301128 2.72336,8.148178 3.11802,12.443099 2.89469,31.515663 -0.0831,7.09946 -0.24137,12.48323 -0.39548,15.49143 2.07461,-0.0172 8.24333,0.004 10.91413,-0.006 0.003,-0.0276 0.008,-0.053 0.011,-0.0805 0.54026,-5.12593 0.40322,-35.917253 -0.17028,-38.202194 C 261.44065,80.122 261.213,78.954424 261.07356,78.07841 256.94821,52.158419 234.69478,30.26459 208.6561,26.506825 204.70093,25.936062 194.11434,25.84739 143.0926,25.953886 Z" /><path
         style="fill:#000000;fill-opacity:1;stroke-width:1.32053"
         d="m 317.7258,251.62152 c -5.11195,-2.03954 -8.02777,-2.80328 -13.38206,-3.50517 -3.76529,-0.49359 -6.9645,-0.89743 -7.10936,-0.89743 -0.14487,0 -0.26339,1.2919 -0.26339,2.87088 0,2.51017 -0.17042,2.91365 -1.35629,3.21129 -1.73495,0.43544 -5.33584,-0.55069 -6.31384,-1.72909 -0.59456,-0.71641 -0.60801,-1.31365 -0.0635,-2.81941 1.09504,-3.02827 0.85124,-3.73779 -1.82274,-5.30484 -3.5772,-2.09639 -6.71833,-3.12672 -15.30266,-5.0195 -4.14998,-0.91503 -7.82307,-1.94133 -8.1624,-2.28065 -1.23093,-1.23093 0.68352,-2.25156 4.99822,-2.66463 12.81094,-1.22647 11.1707,-1.36928 16.65475,1.45015 4.26575,2.19307 5.13399,2.45254 6.12852,1.83145 1.23875,-0.77361 3.47925,-0.054 3.47925,1.11758 0,1.39134 5.06853,2.86674 9.45751,2.753 5.01295,-0.12994 5.88615,0.2343 13.43165,5.60214 8.00488,5.69465 10.11519,8.05665 7.1549,8.00821 -0.54584,-0.009 -3.93368,-1.18973 -7.52854,-2.62398 z M 219.5,223.49995 c 0,-1.38542 11.10936,-9.66711 16.95681,-12.64079 1.8831,-0.95763 3.14833,-1.21713 4.69521,-0.96298 6.57551,1.08038 7.76026,1.08281 10.11549,0.0207 1.90342,-0.85832 2.58937,-0.93124 3.487,-0.37066 1.59778,0.99783 2.16696,0.90209 6.32146,-1.06331 2.04646,-0.96814 4.48413,-1.76025 5.41704,-1.76025 1.75493,0 11.37658,3.6208 16.44022,6.18673 1.64502,0.8336 2.88662,1.86661 2.88662,2.40166 0,1.03492 0.0608,1.04246 -6.90244,-0.85654 -8.09203,-2.20684 -10.56496,-2.21541 -16.70094,-0.0578 -2.99653,1.05364 -5.76531,2.15648 -6.15284,2.45077 -0.38754,0.2943 -0.7837,1.87293 -0.88036,3.50809 -0.20833,3.52444 -1.10663,4.31561 -4.23389,3.72892 -2.15554,-0.40437 -2.18893,-0.45141 -1.83032,-2.57762 0.24771,-1.46862 0.0887,-2.54353 -0.49369,-3.33952 -0.77516,-1.05926 -1.53657,-1.1738 -7.80263,-1.1738 h -6.94366 l -5.28211,2.55935 c -2.90516,1.40765 -5.98314,3.05831 -6.83997,3.66814 -1.86404,1.32671 -2.257,1.37528 -2.257,0.27896 z m 96.33275,-22.86965 c -0.79688,-1.9226 -2.88758,-4.90213 -5.28598,-7.53318 -2.18222,-2.39393 -4.38732,-4.9517 -4.9002,-5.68395 -1.0012,-1.4294 -4.50431,-2.92501 -6.94943,-2.96695 -1.89223,-0.0325 -2.86118,0.75218 -5.15793,4.17674 -1.00893,1.50437 -2.96046,3.70568 -4.33672,4.89179 -2.81816,2.42878 -7.40139,5.27654 -7.8194,4.85853 -0.52516,-0.52517 2.06554,-7.80109 3.55253,-9.97715 l 1.49431,-2.18678 -1.62556,-0.38991 c -2.53045,-0.60695 -4.92801,-1.97744 -4.54463,-2.59777 0.19101,-0.30905 1.60998,-0.56191 3.15327,-0.56191 3.14935,0 10.81923,-1.8117 13.46743,-3.18114 2.87608,-1.48728 9.70016,-2.31335 12.22545,-1.47994 1.89867,0.62662 2.03883,0.79754 1.17317,1.43054 -1.52652,1.11622 -1.20252,1.79087 1.80463,3.75792 3.17213,2.07495 4.54595,3.76822 5.6914,7.01478 1.69815,4.81305 1.67711,12.84192 -0.0351,13.41267 -0.32392,0.10802 -1.18217,-1.23496 -1.90722,-2.98429 z m 25.28644,-24.4631 c -1.38076,-0.272 -3.75771,-1.14532 -5.28211,-1.9407 -1.88845,-0.98531 -4.11096,-1.54297 -6.97458,-1.75003 -4.155,-0.30044 -9.00236,-2.10062 -9.00236,-3.34326 0,-0.36451 2.0036,-0.52857 5.23014,-0.42825 4.8417,0.15054 5.34295,0.0569 6.74936,-1.26022 1.88639,-1.7667 1.90992,-3.09133 0.10934,-6.15531 -1.68747,-2.87153 -3.765,-4.47489 -9.35919,-7.22312 -5.5182,-2.7109 -10.83178,-6.52404 -13.81684,-9.91525 -3.81707,-4.33642 -2.94791,-4.62044 3.0173,-0.98595 6.46514,3.93908 10.23952,5.5391 19.13604,8.1121 7.67164,2.21874 11.98625,4.82267 15.26265,9.21128 1.63931,2.1958 2.45386,2.80352 3.7576,2.80352 1.9793,0 4.41354,-1.17259 5.94328,-2.86293 1.58394,-1.75026 4.50508,-2.1091 8.7353,-1.07308 5.99222,1.46756 9.24358,1.65107 14.69277,0.82931 5.21598,-0.7866 6.40791,-0.52169 5.04447,1.12115 -1.95423,2.3547 -4.97719,3.15935 -11.86925,3.15935 -8.84077,0 -12.13677,0.46241 -12.13677,1.70273 0,0.6173 1.04022,1.32572 2.93451,1.99852 1.61397,0.57322 2.9345,1.29549 2.9345,1.60501 0,0.30951 -1.53332,0.56276 -3.40738,0.56276 -2.76697,0 -3.78732,0.28826 -5.42884,1.53373 -4.8356,3.66889 -11.08507,5.32005 -16.26994,4.29864 z"
         id="path6" /><path
         style="fill:#000000;stroke-width:1.22318"
         d="m 69.910898,326.24296 c -5.321808,-1.13175 -9.419217,-5.17162 -9.419217,-9.28692 0,-0.85755 0.385838,-1.05189 2.088488,-1.05189 1.969669,0 2.125991,0.1252 2.74778,2.20053 0.812006,2.71026 2.942462,4.12997 6.948597,4.63051 7.673366,0.95871 13.013559,-2.62883 11.032454,-7.41162 -0.851711,-2.05621 -2.482951,-2.58598 -9.934812,-3.22647 -7.029583,-0.60419 -9.197651,-1.27971 -11.251609,-3.50574 -1.084469,-1.17532 -1.359084,-2.0408 -1.359084,-4.28323 0,-3.96166 1.642799,-6.41287 5.600387,-8.35631 2.659528,-1.30601 3.751458,-1.52035 7.718648,-1.5151 3.825215,0.005 5.088793,0.23908 7.338276,1.35908 3.150389,1.56858 5.165304,4.24835 5.165304,6.86972 0,1.75383 -0.07914,1.82232 -2.106579,1.82232 -1.89349,0 -2.138737,-0.16077 -2.424446,-1.58932 -0.655391,-3.27694 -4.841639,-5.32484 -9.710139,-4.75017 -3.603673,0.42539 -5.818602,1.72674 -6.755543,3.96915 -1.721828,4.12093 0.232649,5.53973 8.607579,6.24842 7.803928,0.6604 9.77049,1.1978 11.796278,3.22358 4.094657,4.09467 2.00075,10.94557 -4.181221,13.68019 -2.688884,1.18943 -8.608337,1.67352 -11.901141,0.97327 z m 35.558042,-0.0235 c -7.583975,-1.91319 -12.070312,-7.77319 -12.059267,-15.75164 0.0098,-6.91674 3.212875,-12.05108 9.213637,-14.7678 3.85287,-1.74431 10.82524,-1.74431 14.67812,0 6.00506,2.71868 9.208,7.85556 9.208,14.7678 0,6.87179 -3.2373,12.10185 -9.08937,14.68436 -2.97025,1.31078 -8.89019,1.83945 -11.95112,1.06728 z m 8.50761,-3.91256 c 1.35264,-0.40169 3.23697,-1.65957 4.76444,-3.18049 2.06729,-2.05843 2.64281,-3.07457 3.16445,-5.5873 2.64743,-12.75265 -11.59667,-20.81576 -20.7217,-11.72989 -2.058597,2.04977 -2.643642,3.07862 -3.157132,5.5521 -2.078519,10.01218 6.258012,17.82376 15.949942,14.94558 z m 20.1515,3.23904 c -0.14505,-0.37798 -0.19853,-7.41125 -0.11889,-15.62948 l 0.14489,-14.94221 9.24177,0.009 c 7.93747,0.007 9.51032,0.15032 11.14449,1.01494 2.45893,1.301 4.26012,2.95636 5.21618,4.79389 0.99586,1.914 0.97827,6.59759 -0.0322,8.55147 -0.98806,1.91069 -3.74721,4.27838 -5.49776,4.71774 -0.72445,0.18183 -1.31719,0.42572 -1.31719,0.54199 0,0.11633 1.66912,2.47494 3.70916,5.2415 5.08424,6.89488 4.9346,6.39158 1.89518,6.37439 l -2.61435,-0.0148 -3.95738,-5.42155 -3.95738,-5.42153 h -4.87668 -4.87667 v 5.43633 5.43633 h -1.91978 c -1.05588,0 -2.03846,-0.30925 -2.1835,-0.68725 z m 18.24766,-14.87369 c 5.51377,-2.20618 4.84636,-9.97909 -0.99619,-11.60182 -1.10203,-0.30607 -4.5112,-0.55786 -7.57593,-0.55953 l -5.57226,-0.002 v 6.5236 6.52361 h 5.96898 c 4.24003,0 6.60807,-0.25572 8.1754,-0.88283 z m 25.3597,15.19853 c -0.19934,-0.19933 -0.36243,-6.43753 -0.36243,-13.86267 v -13.50024 h -6.55805 -6.55804 l 0.17035,-1.76682 0.17035,-1.7668 15.08584,-0.14451 15.08584,-0.14451 v 1.91132 1.91132 h -6.5236 -6.52361 v 13.86266 13.86267 h -1.81212 c -0.99666,0 -1.9752,-0.16309 -2.17453,-0.36242 z m 23.25962,-0.32484 c -0.14504,-0.37798 -0.19853,-7.41125 -0.11889,-15.62948 l 0.14487,-14.94221 12.09586,-0.14632 12.09586,-0.1463 v 1.91312 1.91312 H 215.1555 205.09827 v 4.89271 4.8927 h 9.24178 9.24178 v 1.90271 1.90273 h -9.24178 -9.24178 v 5.16452 5.16452 h 10.32904 10.32906 v 1.90272 1.90272 h -12.24883 c -9.3709,0 -12.3108,-0.16147 -12.51256,-0.68726 z m 30.98714,0 c -0.14505,-0.37798 -0.19853,-7.41125 -0.1189,-15.62948 l 0.14489,-14.94221 12.09584,-0.14632 12.09586,-0.1463 v 1.91312 1.91312 h -10.05722 -10.05723 v 4.89271 4.8927 h 9.24177 9.24178 v 1.90271 1.90273 h -9.24178 -9.24177 v 5.16452 5.16452 h 10.32904 10.32905 v 1.90272 1.90272 h -12.24883 c -9.3709,0 -12.31079,-0.16147 -12.51255,-0.68726 z"
         id="path5" /><path
         id="path7"
         style="fill:#0b5400;fill-opacity:1;stroke-width:0.471685"
         d="m 194.536,87.754896 c -2.20508,-0.07638 -4.44465,0.375274 -6.52175,1.391501 -4.79629,2.34661 -7.01487,6.030575 -7.32551,12.159153 -0.18614,3.67101 -0.0811,4.34397 1.09672,6.96849 1.8706,4.16824 4.93609,6.59524 9.65445,7.6441 0.90799,0.20186 2.80113,0.26776 4.20746,0.14647 7.13494,-0.61533 12.28551,-6.3417 12.29647,-13.66966 0.006,-4.335 -1.01036,-7.203721 -3.56114,-10.040777 -2.58914,-2.879762 -6.17156,-4.471979 -9.8467,-4.599277 z m -48.849,0.530969 c -4.7469,-0.0088 -7.60563,1.167628 -10.19824,4.196473 -7.09453,8.288382 -3.23998,21.163012 7.0875,23.670162 3.20712,0.77852 3.4186,0.77542 6.66639,-0.0659 3.55873,-0.92188 5.91176,-2.46674 7.65874,-5.03321 5.13533,-7.54443 2.92233,-17.447547 -4.80434,-21.500517 -2.04918,-1.074903 -2.98803,-1.260436 -6.41005,-1.266998 z m -48.186214,0.01099 c -2.19831,-0.124172 -4.421408,0.228508 -6.400909,1.11137 -6.464625,2.883215 -9.62335,10.612565 -7.32186,17.913745 1.113032,3.53096 4.693488,7.24727 7.942544,8.24464 5.494945,1.68677 10.823249,0.5706 14.414849,-3.02103 3.20056,-3.20055 4.34863,-5.9199 4.37225,-10.35203 0.0212,-4.02011 -0.94494,-6.690295 -3.46227,-9.557409 -2.28455,-2.601953 -5.88077,-4.132332 -9.544604,-4.339286 z" /></g></g></svg>
