<?xml version="1.0" encoding="UTF-8" standalone="no"?>
<!-- Created with Inkscape (http://www.inkscape.org/) -->

<svg
   width="52"
   height="52"
   viewBox="0 0 13.758333 13.758334"
   version="1.1"
   id="svg1"
   xml:space="preserve"
   xmlns="http://www.w3.org/2000/svg"
   xmlns:svg="http://www.w3.org/2000/svg"><defs
     id="defs1" /><g
     id="layer1"
     transform="matrix(0.1407537,0,0,0.1407537,-1.4649557,-1.0691077)"><path
       style="opacity:1;fill:#0a5400;fill-opacity:1;stroke:none;stroke-width:0.3175;stroke-linejoin:bevel;paint-order:markers fill stroke"
       id="rect1"
       width="5"
       height="6.9999995"
       x="40"
       y="9"
       d="m 40.79375,9 h 3.4125 A 0.79374998,0.79374998 45 0 1 45,9.79375 v 5.4125 A 0.79374998,0.79374998 135 0 1 44.20625,16 h -3.4125 A 0.79374998,0.79374998 45 0 1 40,15.20625 V 9.79375 A 0.79374998,0.79374998 135 0 1 40.79375,9 Z"
       transform="matrix(3.4126055,0,0,3.6256412,-113.56725,6.9897395)" /><rect
       style="opacity:0.565046;fill:#ececec;stroke:none;stroke-width:1.1168;stroke-linejoin:bevel;paint-order:markers fill stroke"
       id="rect2"
       width="10.237817"
       height="3.6256413"
       x="26.34955"
       y="43.246155" /><path
       style="opacity:1;fill:#000000;stroke:none;stroke-width:0.3175;stroke-linejoin:bevel;paint-order:markers fill stroke"
       id="rect3"
       width="2.6695135"
       height="6.0333161"
       x="36.330486"
       y="9.5331621"
       d="M 39,9.5331621 V 15.566478 A 2.7736708,2.7736708 47.113098 0 1 36.330486,12.692422 V 12.202676 A 2.6695135,2.6695135 135 0 1 39,9.5331621 Z"
       transform="matrix(3.4126055,0,0,3.6256412,-113.56725,6.9897395)" /><ellipse
       style="opacity:0.565046;fill:#f9f9f9;stroke:none;stroke-width:1.15144;stroke-linejoin:bevel;paint-order:markers fill stroke"
       id="path3"
       cx="33.00943"
       cy="51.751648"
       rx="1.0403593"
       ry="1.9270271"
       transform="matrix(1,0,-0.3391428,0.9407349,0,0)" /><path
       style="opacity:1;fill:#bfbfbf;fill-opacity:1;stroke:none;stroke-width:0.354463;stroke-linejoin:bevel;paint-order:markers fill stroke"
       id="rect4"
       width="4.3515854"
       height="6.9382515"
       x="35.584141"
       y="17.593325"
       transform="matrix(3.4126055,0,1.0701729,3.4427536,-113.56725,6.9897395)"
       d="m 36.140742,17.593325 h 3.238383 a 0.55660159,0.55660159 45 0 1 0.556601,0.556601 v 5.018769 a 1.3628815,1.3628815 135 0 1 -1.362881,1.362881 h -2.432103 a 0.55660159,0.55660159 45 0 1 -0.556601,-0.556601 v -5.825049 a 0.55660159,0.55660159 135 0 1 0.556601,-0.556601 z" /><path
       style="opacity:1;fill:#000000;stroke:none;stroke-width:0.3175;stroke-linejoin:bevel;paint-order:markers fill stroke"
       d="m 55.001008,5.5291654 0.02655,13.9416686 a 0.34361666,0.34361666 146.89304 0 1 -0.482803,0.314819 L 46,15.999999 46.000529,8.9999999 54.516446,5.2149252 a 0.34460003,0.34460003 32.963575 0 1 0.484562,0.3142402 z"
       id="path4"
       transform="matrix(3.4126055,0,0,3.6256412,-113.56725,6.9897395)" /><path
       style="opacity:1;fill:#808080;fill-opacity:1;stroke:none;stroke-width:0.3175;stroke-linejoin:bevel;paint-order:markers fill stroke"
       id="rect5"
       width="1"
       height="17"
       x="56"
       y="3.9999998"
       d="M 56.529167,3.9999998 A 0.50084997,0.50084997 48.338469 0 1 57,4.5291664 V 20.470833 A 0.52916665,0.52916665 135 0 1 56.470833,21 0.50084997,0.50084997 48.338469 0 1 56,20.470833 V 4.5291664 a 0.52916665,0.52916665 135 0 1 0.529167,-0.5291666 z"
       transform="matrix(3.5070814,0,0,3.6256459,-118.8579,6.9902695)" /><path
       style="opacity:1;fill:#bfbfbf;fill-opacity:1;stroke:none;stroke-width:1.25641;stroke-linejoin:bevel;paint-order:markers fill stroke"
       d="m 84.364299,46.192562 v 12.236547 c 0,0 7.67836,-5.376141 0,-12.236547 z"
       id="path6" /><path
       style="opacity:0.536783;fill:#b3b3b3;stroke:none;stroke-width:0.331171;stroke-linejoin:bevel;paint-order:markers fill stroke"
       id="rect23"
       width="7.6157742"
       height="0.99999994"
       x="-32.639034"
       y="-31.357151"
       transform="matrix(3.136679,-1.4282112,0,3.6256412,149.2034,110.32049)"
       d="m -32.352049,-31.357151 h 7.041804 a 0.28698512,0.28698512 45 0 1 0.286985,0.286985 v 0.42603 a 0.28698512,0.28698512 135 0 1 -0.286985,0.286985 h -7.041804 a 0.28698512,0.28698512 45 0 1 -0.286985,-0.286985 v -0.42603 a 0.28698512,0.28698512 135 0 1 0.286985,-0.286985 z" /><path
       style="opacity:1;fill:#bfbfbf;fill-opacity:1;stroke:none;stroke-width:0.3175;stroke-linejoin:bevel;paint-order:markers fill stroke"
       id="rect26"
       width="5"
       height="0.99999994"
       x="61.000004"
       y="11.999999"
       d="m 61.264587,11.999999 h 4.470833 a 0.26458333,0.26458333 45 0 1 0.264584,0.264583 v 0.470834 a 0.26458333,0.26458333 135 0 1 -0.264584,0.264583 h -4.470833 a 0.26458333,0.26458333 45 0 1 -0.264583,-0.264583 v -0.470834 a 0.26458333,0.26458333 135 0 1 0.264583,-0.264583 z"
       transform="matrix(3.4126055,0,0,3.6256412,-117.07646,6.9903265)" /><path
       style="opacity:1;fill:#bfbfbf;fill-opacity:1;stroke:none;stroke-width:0.3175;stroke-linejoin:bevel;paint-order:markers fill stroke"
       id="path38"
       width="5"
       height="0.99999994"
       x="61.000004"
       y="11.999999"
       d="m 61.264587,11.999999 h 4.470833 a 0.26458333,0.26458333 45 0 1 0.264584,0.264583 v 0.470834 a 0.26458333,0.26458333 135 0 1 -0.264584,0.264583 h -4.470833 a 0.26458333,0.26458333 45 0 1 -0.264583,-0.264583 v -0.470834 a 0.26458333,0.26458333 135 0 1 0.264583,-0.264583 z"
       transform="matrix(3.1500966,1.3944794,-1.3125425,3.3467449,-84.278188,-67.090235)" /><path
       style="opacity:1;fill:#bfbfbf;fill-opacity:1;stroke:none;stroke-width:0.3175;stroke-linejoin:bevel;paint-order:markers fill stroke"
       id="path42"
       width="5"
       height="0.99999994"
       x="61.000004"
       y="11.999999"
       d="m 61.264587,11.999999 h 4.470833 a 0.26458333,0.26458333 45 0 1 0.264584,0.264583 v 0.470834 a 0.26458333,0.26458333 135 0 1 -0.264584,0.264583 h -4.470833 a 0.26458333,0.26458333 45 0 1 -0.264583,-0.264583 v -0.470834 a 0.26458333,0.26458333 135 0 1 0.264583,-0.264583 z"
       transform="matrix(3.1500966,-1.3944794,-1.3125425,-3.3467449,-84.278188,171.71192)" /></g></svg>
