<?xml version="1.0" encoding="UTF-8" standalone="no"?>
<!-- Created with Inkscape (http://www.inkscape.org/) -->

<svg
   version="1.1"
   id="svg1"
   width="52"
   height="52"
   viewBox="0 0 51.999999 51.999999"
   xml:space="preserve"
   xmlns="http://www.w3.org/2000/svg"
   xmlns:svg="http://www.w3.org/2000/svg"><defs
     id="defs1" /><g
     id="g1"
     transform="matrix(0.05438884,0,0,0.05364654,-1.586789,-0.74220111)"><path
       style="fill:#000000;stroke-width:1.90751"
       d="m 493.33593,13.837845 c -27.40668,-0.119385 -38.60466,2.73654 -70.10937,17.882813 -31.6313,15.207148 -82.31291,37.031302 -108.77734,46.818359 -23.44482,8.670319 -37.65079,14.7163 -46.81446,20.552735 -9.16366,5.836438 -13.53795,11.183418 -18.66211,20.404298 -5.35856,9.64264 -8.1301,16.69581 -9.50195,26.85351 -1.37185,10.15771 -1.18076,23.60153 0.14844,44.78321 1.44609,23.04486 3.84919,41.87353 5.53125,47.6914 7.07027,24.45514 23.51228,42.45544 51.51172,55.5 21.45236,9.99441 65.17848,26.58105 91.46484,34.66797 32.62274,10.03608 62.26719,9.13386 84.19922,-1.59765 4.93817,-2.41628 16.36135,-7.74815 27.99023,-13.84961 11.62888,-6.10146 23.63661,-13.36279 27.94336,-17.54297 a 6.4212191,6.4212191 0 0 1 10.75586,3.2832 c 10.03698,47.60047 10.63945,105.70459 1.83008,162.03906 -3.02039,19.3147 -5.38368,33.99628 -7.08203,43.99219 -0.84918,4.99796 -1.53119,8.81747 -2.05664,11.51172 -0.26273,1.34712 -0.48234,2.40371 -0.68946,3.26758 -0.10355,0.43193 -0.19933,0.80502 -0.33593,1.24218 -0.13655,0.43701 0.3805,0.47087 -1.33008,2.54493 -1.60742,1.94918 -3.71922,2.31056 -4.75781,2.34961 -1.03859,0.039 -1.54978,-0.11292 -1.94727,-0.2168 -0.79497,-0.20776 -1.10405,-0.37747 -1.41406,-0.52539 -0.62003,-0.29584 -1.03958,-0.55001 -1.54102,-0.85742 -1.00287,-0.61483 -2.18652,-1.40975 -3.61523,-2.4043 -2.85742,-1.98911 -6.62016,-4.74497 -10.70117,-7.85547 v 0.002 C 450.69744,472.70106 380.70343,451.19137 309.58398,454.30464 256.78194,456.61616 208.6319,470.44345 157.80273,497.99409 a 6.4212191,6.4212191 0 0 1 -0.002,0 c -10.94659,5.93329 -17.24372,9.74307 -20.53711,12.54102 -3.29339,2.79795 -3.87745,4.05664 -4.94336,7.85352 -1.83477,6.53513 0.76523,12.8941 7.24219,16.68164 4.1568,2.43067 5.81911,2.89368 8.64257,2.46875 2.82346,-0.42493 7.51694,-2.47477 15.0918,-6.9961 48.7567,-29.10164 96.28516,-43.99086 147.6875,-46.11914 99.87022,-4.13511 192.51623,44.88942 247.74805,130.94141 5.8601,9.13009 9.92379,14.38324 12.88086,16.875 2.95706,2.49176 4.47558,2.8789 8.65625,2.8789 7.89803,0 13.26137,-4.81798 14.24219,-13.16406 0.45696,-3.88868 0.77402,-3.64199 -1.01563,-7.19922 -1.78965,-3.55722 -6.29438,-10.14851 -15.08789,-22.60547 -5.00875,-7.09528 -9.75708,-13.8022 -13.36914,-18.88476 -3.61206,-5.08256 -6.42047,-8.97265 -6.44141,-9 a 6.4212191,6.4212191 0 0 1 -0.002,0 c -1.26917,-1.65846 -1.24922,-2.51531 -1.375,-3.20313 -0.12578,-0.68782 -0.15741,-1.21112 -0.17773,-1.74609 -0.0407,-1.06994 2.1e-4,-2.15281 0.0859,-3.44336 0.17145,-2.58109 0.54356,-5.92299 1.09766,-10.07031 1.10821,-8.29465 2.95302,-19.74437 5.41992,-33.51563 18.18421,-101.51512 19.67001,-141.20623 7.875,-208.48828 a 6.4212191,6.4212191 0 0 1 -0.006,-0.0293 c -3.98347,-23.35013 -10.50115,-46.77937 -23.33567,-65.85937 -0.44586,0.27456 -0.60546,0.3033 -1.13671,0.67578 -3.05675,2.14318 -7.3028,5.75616 -11.89258,9.94141 -9.17956,8.37048 -19.82743,19.02234 -28.17578,26.27929 -21.75225,18.90851 -37.21047,25.86497 -61.2461,27.87891 -16.63226,1.39348 -34.47922,2.73874 -76.02344,-12.13672 -17.70101,-6.3381 -34.74713,-13.26226 -48.62304,-19.62109 -13.87591,-6.35883 -24.25398,-11.74779 -30.14063,-16.70508 v 0.002 c -6.38692,-5.37855 -11.20134,-10.60273 -13.7207,-19.14257 -2.51936,-8.53985 -3.39113,-19.87096 -4.82813,-40.50977 -2.03944,-29.29182 -3.27932,-45.44754 3.28125,-58.06445 3.28029,-6.30846 8.58412,-10.99013 15.32813,-14.79102 6.74401,-3.80089 15.06796,-7.01106 25.80078,-11.00391 35.15061,-13.076768 45.22575,-17.326776 99.99024,-42.191401 25.00475,-11.352968 40.58249,-17.999576 52.82812,-21.673828 12.24563,-3.674252 21.37878,-4.197357 31.53906,-3.195312 25.72673,2.537337 47.53241,14.803986 74.63867,41.039062 62.20967,60.210379 136.83347,189.964049 194.3086,335.927729 35.57291,90.34076 56.47604,176.76123 66.62305,275.37305 2.14268,20.82277 4.7479,34.8556 8.8125,47.96875 5.21936,16.83961 6.16475,23.41349 5.4121,37.16602 -0.74335,13.58344 -2.49096,19.9921 -8.7832,32.20312 -8.5647,16.62106 -21.84637,29.12122 -42.62695,38.33203 -20.78058,9.21082 -49.05978,15.59484 -89.39258,21.47657 -53.14916,7.75065 -64.58864,11.05615 -117.83398,34.02539 -79.89713,34.46667 -127.5996,45.73848 -194.39063,45.77929 -38.35552,0.023 -64.91301,-0.93982 -100.78516,-12.84179 -82.01982,-27.21304 -115.36899,-51.16455 -131.45703,-62.78907 -4.02201,-2.90612 -6.96301,-4.973 -8.79687,-5.9375 -1.83386,-0.96449 -1.94096,-0.81277 -2.18164,-0.75586 -0.47386,0.11206 -5.02547,3.84923 -13.32227,13.25 -3.33683,4.85196 -3.07802,8.22642 0.44922,13.92969 3.58235,5.79237 11.37742,12.80011 22.09961,19.74219 21.44438,13.88415 54.19228,27.86919 87.17773,39.83984 52.58765,19.08428 91.60426,25.84516 148.75,25.76172 70.95296,-0.10372 117.51083,-10.9657 204.32813,-47.8125 48.74364,-20.68774 64.49494,-25.3923 110.92578,-33.12695 54.28511,-9.04308 86.74081,-17.90746 109.70703,-29.51953 6.86569,-3.47134 16.97704,-11.51984 25.81055,-20.43555 8.8335,-8.91571 16.61653,-18.97429 19.65625,-25.4043 14.20237,-30.04201 16.19585,-61.09833 5.99219,-90.74218 -4.68841,-13.62089 -6.80805,-25.44479 -9.36328,-51.61133 C 857.0229,583.16053 829.23138,481.7718 778.01953,360.67378 747.91526,289.48811 726.92999,247.60912 692.47461,189.94722 632.93948,90.313591 579.55363,35.168784 530.15234,18.744095 517.03285,14.382088 513.47527,13.925606 493.33593,13.837845 Z"
       id="path1" /><path
       id="path7"
       style="fill:#0a5200;fill-opacity:1;stroke:none;stroke-width:2.5;stroke-linejoin:bevel;paint-order:markers fill stroke"
       d="m 487.5293,699.11914 -256.12305,2.13086 1.06445,144.04297 81.18555,66.48047 105.47461,-1.49024 59.44922,-54.12304 16.62109,-86.08594 z m -129.14844,50.86524 c 6.06524,-0.0964 12.40154,0.91996 16.82812,2.92578 6.54353,2.9651 13.50961,9.55613 16.73633,15.83593 1.89808,3.694 2.4021,6.56528 2.39844,13.67579 -0.004,7.8191 -0.39687,9.66764 -2.98828,14.08984 -3.24609,5.5394 -9.02931,10.63147 -14.95703,13.16797 l -3.77149,1.61328 v 20.86328 c 0,22.9987 -0.57035,25.42765 -6.64843,28.24805 -4.08506,1.8957 -8.60355,1.87932 -12.56055,-0.0469 -5.84945,-2.8481 -6.42188,-5.36717 -6.42188,-28.26367 v -20.92969 l -3.42382,-1.27148 c -4.84736,-1.8017 -12.51966,-9.00591 -15.61719,-14.66211 -2.13125,-3.8917 -2.6399,-6.42969 -2.66211,-13.30859 -0.0236,-7.31511 0.40806,-9.29553 3.09375,-14.20313 3.92136,-7.1657 12.34219,-14.09683 19.8418,-16.33203 2.97155,-0.88568 6.5132,-1.3445 10.15234,-1.40234 z" /><path
       style="fill:#0a5200;fill-opacity:1;stroke-width:1.05565"
       d="m 327.48158,926.6058 c -53.32246,-8.4077 -99.29764,-45.056 -112.44297,-89.632 -4.09697,-13.8928 -4.81643,-26.3321 -4.64983,-80.391 l 0.151,-49.0206 3.66281,-6.6768 c 5.99713,-10.9322 16.89707,-17.782 28.29602,-17.782 h 4.25912 l 0.0111,-37.75 c 0.0111,-49.4264 1.22283,-56.945 12.36592,-76.5695 23.61267,-41.5852 61.09579,-61.856 109.65415,-59.3008 32.66658,1.7189 56.32078,11.3412 77.89902,31.6885 14.97101,14.117 24.59452,29.8633 30.41277,49.7622 2.41034,8.2436 2.911,12.5611 3.39503,29.2773 0.63366,21.884 -0.0478,25.5479 -5.38586,28.9588 -3.68197,2.3526 -11.5343,2.8368 -15.45686,0.953 -1.31379,-0.6309 -3.36294,-2.5809 -4.55369,-4.3333 -1.9068,-2.8062 -2.1655,-5.1086 -2.16916,-19.3052 -0.002,-9.9139 -0.65608,-19.4736 -1.69763,-24.8332 -6.1088,-31.4344 -30.63716,-55.9764 -64.68926,-64.7252 -11.63101,-2.9883 -36.0667,-3.2219 -47.22146,-0.4514 -29.85119,7.4142 -52.32557,27.3777 -61.49943,54.6288 -2.41841,7.1839 -2.54182,9.2798 -2.92839,49.7301 l -0.40357,42.2301 105.09796,0.2699 105.09796,0.2699 6.01631,2.9898 c 6.68586,3.3226 13.40915,10.4951 16.47133,17.5717 2.26032,5.2236 2.62527,27.4478 1.4112,85.9385 -0.64711,31.1764 -1.00743,36.3525 -2.95847,42.5 -5.36411,16.9015 -14.62351,32.7762 -27.44694,47.056 -21.15704,23.5599 -48.00527,38.6843 -80.9737,45.6149 -12.67901,2.6653 -56.01193,3.4929 -69.71995,1.3315 z m 54.71248,-23.5703 c 44.58809,-5.565 78.87965,-30.2728 94.16021,-67.8444 6.02745,-14.8202 6.64651,-21.688 6.65146,-73.7907 0.003,-32.4723 -0.38164,-47.9634 -1.23281,-49.6397 -0.6805,-1.3402 -2.45928,-2.9364 -3.95283,-3.5471 -1.93482,-0.791 -36.19596,-1.1102 -119.1684,-1.1102 H 242.19884 l -2.7968,2.5097 -2.79681,2.5097 0.38558,54.2403 c 0.3702,52.092 0.48153,54.5486 2.81141,62.0241 5.04934,16.2007 14.58123,31.3023 27.43348,43.4632 17.28937,16.3593 38.52828,26.8026 62.54404,30.7532 9.72724,1.6002 40.98984,1.8578 52.41432,0.4319 z"
       id="path3" /><path
       style="fill:#000000;stroke-width:1.94379;stroke-linejoin:bevel;paint-order:markers fill stroke"
       d="m 298.25615,274.23984 c 0,0 113.13687,-35.39575 101.77278,-59.88218 -11.36411,-24.48644 -31.97255,-27.92806 -31.97255,-27.92806 l 16.82592,-21.86708 c 0,0 54.43894,40.51016 41.47263,60.33673 -5.4941,8.40093 -21.44459,24.12584 -42.83882,36.9156 -29.0971,17.39465 -64.69907,31.23582 -64.69907,31.23582 v 0 c -9.56851,0.85075 -16.42214,-5.41952 -20.56089,-18.81083 z"
       id="path4" /></g></svg>
