<?xml version="1.0" encoding="UTF-8" standalone="no"?>
<!-- Created with Inkscape (http://www.inkscape.org/) -->

<svg
   width="52"
   height="52"
   viewBox="0 0 13.758333 13.758334"
   version="1.1"
   id="svg1"
   xml:space="preserve"
   xmlns="http://www.w3.org/2000/svg"
   xmlns:svg="http://www.w3.org/2000/svg"><defs
     id="defs1"><marker
       style="overflow:visible"
       id="RoundedArrow"
       refX="0"
       refY="0"
       orient="auto-start-reverse"
       markerWidth="0.5"
       markerHeight="0.80000001"
       viewBox="0 0 1 1"
       preserveAspectRatio="xMidYMid"><path
         transform="scale(0.7)"
         d="m -0.21114562,-4.1055728 6.42229122,3.21114561 a 1,1 90 0 1 0,1.78885438 L -0.21114562,4.1055728 A 1.236068,1.236068 31.717474 0 1 -2,3 v -6 a 1.236068,1.236068 148.28253 0 1 1.78885438,-1.1055728 z"
         style="fill:context-stroke;fill-rule:evenodd;stroke:none"
         id="path49" /></marker></defs><g
     id="g1"
     transform="matrix(0.15061719,0,0,0.15061719,-1.9110675,-2.000644)"><ellipse
       style="fill:#e5e5e5;fill-opacity:1;stroke:none;stroke-width:2.54538;stroke-linejoin:bevel;stroke-dasharray:none;stroke-opacity:1;paint-order:markers fill stroke"
       id="ellipse111"
       cx="58.361431"
       cy="58.956158"
       rx="45.673183"
       ry="44.089752" /><rect
       style="fill:#0a5200;fill-opacity:1;stroke:none;stroke-width:1.87724;stroke-linejoin:bevel;stroke-dasharray:none;stroke-opacity:1;paint-order:markers fill stroke"
       id="rect88"
       width="7.8731494"
       height="8.7479763"
       x="-58.394146"
       y="85.819168"
       transform="rotate(-90)" /><path
       style="fill:#0a5200;fill-opacity:1;stroke:none;stroke-width:1.87724;stroke-linejoin:bevel;stroke-dasharray:none;stroke-opacity:1;paint-order:markers fill stroke"
       id="path89"
       width="9"
       height="4.5888591"
       x="8"
       y="55.41114"
       d="m 55.356737,27.548892 h 6.687446 a 4.529451,4.0764931 0 0 1 4.529451,4.076493 v 3.149263 H 50.827285 v -3.149263 a 4.529451,4.0764931 0 0 1 4.529452,-4.076493 z" /><path
       style="fill:#0a5200;fill-opacity:1;stroke:none;stroke-width:1.87724;stroke-linejoin:bevel;stroke-dasharray:none;stroke-opacity:1;paint-order:markers fill stroke"
       id="path91"
       width="9"
       height="4.5888591"
       x="8"
       y="55.41114"
       d="m 86.849397,59.04157 h 6.68745 a 4.5294536,4.0764925 0 0 1 4.529454,4.076492 v 3.149263 H 82.319943 v -3.149263 a 4.5294536,4.0764925 0 0 1 4.529454,-4.076492 z" /><path
       style="fill:#0a5200;fill-opacity:1;stroke:none;stroke-width:1.77924;stroke-linejoin:bevel;stroke-dasharray:none;stroke-opacity:1;paint-order:markers fill stroke"
       id="path92"
       width="9"
       height="4.5888591"
       x="8"
       y="55.41114"
       d="m 30.551496,59.872552 h -6.687442 a 4.5294484,3.6619737 0 0 0 -4.529449,3.661974 v 2.829029 h 15.74634 v -2.829029 a 4.5294484,3.6619737 0 0 0 -4.529449,-3.661974 z" /><ellipse
       style="fill:#0a5200;fill-opacity:1;stroke:none;stroke-width:1.87724;stroke-linejoin:bevel;stroke-dasharray:none;stroke-opacity:1;paint-order:markers fill stroke"
       id="ellipse92"
       cx="58.700451"
       cy="22.964884"
       rx="4.3739862"
       ry="3.9365747" /><path
       style="fill:#0a5200;fill-opacity:1;stroke:none;stroke-width:1.87724;stroke-linejoin:bevel;stroke-dasharray:none;stroke-opacity:1;paint-order:markers fill stroke"
       id="path90"
       width="9"
       height="4.5888591"
       x="8"
       y="55.41114"
       d="m 62.044154,87.36797 h -6.687439 a 4.5294464,4.0764995 0 0 0 -4.529446,4.076499 v 3.149268 H 66.573601 V 91.444469 A 4.5294464,4.0764995 0 0 0 62.044154,87.36797 Z" /><path
       style="fill:#0a5200;fill-opacity:1;stroke:none;stroke-width:1.87724;stroke-linejoin:bevel;stroke-dasharray:none;stroke-opacity:1;paint-order:markers fill stroke"
       d="m 58.700441,86.720573 -4.37399,-7.87317 h 8.74797 z"
       id="path93" /><path
       style="fill:#0a5200;fill-opacity:1;stroke:none;stroke-width:1.39327;stroke-linejoin:bevel;stroke-dasharray:none;stroke-opacity:1;paint-order:markers fill stroke"
       d="m 27.207771,50.617223 -4.37399,4.33686 4.37399,4.33685 4.374,-4.33685 z"
       id="path94" /><path
       style="fill:none;fill-opacity:1;stroke:#000000;stroke-width:1.85436;stroke-linejoin:bevel;stroke-dasharray:none;stroke-opacity:1;marker-start:url(#RoundedArrow);paint-order:markers fill stroke"
       d="m 86.102531,39.996853 c -1.31863,-4.26475 -6.69897,-10.62962 -13.21083,-10.5934"
       id="path107" /><path
       style="fill:none;fill-opacity:1;stroke:#000000;stroke-width:1.85436;stroke-linejoin:bevel;stroke-dasharray:none;stroke-opacity:1;marker-start:url(#RoundedArrow);paint-order:markers fill stroke"
       d="m 80.247001,85.781863 c 4.26478,-1.31864 10.62963,-6.69898 10.59341,-13.21084"
       id="path114" /><path
       style="fill:none;fill-opacity:1;stroke:#000000;stroke-width:1.85436;stroke-linejoin:bevel;stroke-dasharray:none;stroke-opacity:1;marker-start:url(#RoundedArrow);paint-order:markers fill stroke"
       d="m 31.298361,76.791453 c 1.31864,4.26477 6.69898,10.62963 13.21084,10.59342"
       id="path115" /><path
       style="fill:none;fill-opacity:1;stroke:#000000;stroke-width:1.85436;stroke-linejoin:bevel;stroke-dasharray:none;stroke-opacity:1;marker-start:url(#RoundedArrow);paint-order:markers fill stroke"
       d="m 40.305711,30.992083 c -4.26476,1.31863 -10.62962,6.69897 -10.59341,13.21084"
       id="path116" /><path
       id="path117"
       style="fill:#ffffff;fill-opacity:1;stroke:#000000;stroke-width:0.291636;stroke-linejoin:bevel;stroke-dasharray:none;stroke-opacity:1;paint-order:markers fill stroke"
       d="m 62.977511,71.438213 h -7.95813 a 9.4478035,23.393056 0 0 0 3.97906,2.18632 9.4478035,23.393056 0 0 0 3.97907,-2.18632 z" /><path
       id="path118"
       style="fill:#ffffff;fill-opacity:1;stroke:#000000;stroke-width:0.291636;stroke-linejoin:bevel;stroke-dasharray:none;stroke-opacity:1;paint-order:markers fill stroke"
       d="m 58.998441,43.210573 c -5.2177,3.6e-4 -9.44729,4.93527 -9.44723,11.02258 0.002,4.28819 0.47714,8.26789 3.81074,10.07418 l 3.16606,-0.0818 -0.022,-6.23306 c 0.33527,-0.13001 -4.3919,0.44321 -2.83497,-2.79429 2.28551,-4.75245 4.4826,0.63195 4.33711,0.60866 l 0.0472,8.41869 h 1.84391 l 0.0457,-8.41869 c -0.1455,0.0233 2.05319,-5.36111 4.33871,-0.60866 1.55694,3.2375 -3.17024,2.66428 -2.83497,2.79429 l -0.022,6.23306 3.4276,-0.0408 c 3.33359,-1.80629 3.59,-5.66337 3.59148,-9.95154 6e-5,-6.08732 -4.22953,-11.02221 -9.44723,-11.02258 z" /><path
       style="fill:#ffffff;fill-opacity:1;stroke:#000000;stroke-width:0.291635;stroke-linejoin:bevel;stroke-dasharray:none;stroke-opacity:1;paint-order:markers fill stroke"
       id="rect118"
       width="3.6491802"
       height="1.380374"
       x="125.21021"
       y="57.079933"
       d="m 53.361925,65.507011 h 11.492246 v 2.470509 a 1.8766578,1.8766578 0 0 1 -1.876649,1.876658 h -8.165957 a 1.4496356,1.4496356 0 0 1 -1.44964,-1.449636 z" /><path
       style="fill:#f9f9f9;fill-opacity:1;stroke:#000000;stroke-width:0.291635;stroke-linejoin:bevel;stroke-dasharray:none;stroke-opacity:1;paint-order:markers fill stroke"
       id="rect120"
       width="0.42139888"
       height="0.99999994"
       x="127"
       y="47.999996"
       d="m 58.75152,37.729307 h 0.493868 a 0.41662188,0.41662188 0 0 1 0.416617,0.416623 v 2.316022 a 0.41662188,0.41662188 0 0 1 -0.416617,0.416623 H 58.75152 A 0.41662188,0.41662188 0 0 1 58.334903,40.461952 V 38.14593 a 0.41662188,0.41662188 0 0 1 0.416617,-0.416623 z" /><path
       style="fill:#f9f9f9;fill-opacity:1;stroke:#000000;stroke-width:0.291635;stroke-linejoin:bevel;stroke-dasharray:none;stroke-opacity:1;paint-order:markers fill stroke"
       id="path120"
       width="0.42139888"
       height="0.99999994"
       x="127"
       y="47.999996"
       d="m 67.109075,39.788861 0.381148,0.314058 a 0.41662187,0.41662187 0 0 1 0.05659,0.586465 l -1.472791,1.787413 a 0.41662187,0.41662187 0 0 1 -0.586464,0.0566 L 65.106412,42.21934 a 0.41662187,0.41662187 0 0 1 -0.05659,-0.586465 l 1.47279,-1.787413 a 0.41662187,0.41662187 0 0 1 0.586464,-0.0566 z" /><path
       style="fill:#f9f9f9;fill-opacity:1;stroke:#000000;stroke-width:0.291635;stroke-linejoin:bevel;stroke-dasharray:none;stroke-opacity:1;paint-order:markers fill stroke"
       id="path122"
       width="0.42139888"
       height="0.99999994"
       x="127"
       y="47.999996"
       d="m 72.319685,45.572998 0.248619,0.426725 a 0.41662188,0.41662188 0 0 1 -0.150252,0.569709 l -2.00115,1.165914 a 0.41662188,0.41662188 0 0 1 -0.569711,-0.150243 l -0.24862,-0.426725 a 0.41662188,0.41662188 0 0 1 0.150252,-0.569709 l 2.00115,-1.165914 a 0.41662188,0.41662188 0 0 1 0.569712,0.150243 z" /><path
       style="fill:#f9f9f9;fill-opacity:1;stroke:#000000;stroke-width:0.291635;stroke-linejoin:bevel;stroke-dasharray:none;stroke-opacity:1;paint-order:markers fill stroke"
       id="path124"
       width="0.42139888"
       height="0.99999994"
       x="127"
       y="47.999996"
       d="m 45.164327,45.572978 -0.24862,0.426725 a 0.41662188,0.41662188 0 0 0 0.150252,0.569709 l 2.00115,1.165914 a 0.41662188,0.41662188 0 0 0 0.569712,-0.150243 l 0.248619,-0.426725 a 0.41662188,0.41662188 0 0 0 -0.150252,-0.569709 l -2.00115,-1.165914 a 0.41662188,0.41662188 0 0 0 -0.569711,0.150243 z" /><path
       style="fill:#f9f9f9;fill-opacity:1;stroke:#000000;stroke-width:0.291635;stroke-linejoin:bevel;stroke-dasharray:none;stroke-opacity:1;paint-order:markers fill stroke"
       id="path126"
       width="0.42139888"
       height="0.99999994"
       x="127"
       y="47.999996"
       d="m 50.887812,39.981106 -0.381148,0.314057 a 0.41662188,0.41662188 0 0 0 -0.05659,0.586466 l 1.472791,1.787413 a 0.41662188,0.41662188 0 0 0 0.586464,0.0566 l 0.381148,-0.314058 a 0.41662188,0.41662188 0 0 0 0.05659,-0.586465 l -1.472791,-1.787414 a 0.41662188,0.41662188 0 0 0 -0.586464,-0.0566 z" /><g
       id="g7"><path
         style="fill:none;fill-opacity:1;stroke:#e5e5e5;stroke-width:0.403426;stroke-linejoin:bevel;stroke-dasharray:none;stroke-opacity:1;paint-order:markers fill stroke"
         d="m 85.81582,62.193695 7.94e-4,4.202907"
         id="path6" /><path
         style="fill:none;fill-opacity:1;stroke:#e5e5e5;stroke-width:0.403426;stroke-linejoin:bevel;stroke-dasharray:none;stroke-opacity:1;paint-order:markers fill stroke"
         d="m 94.364637,62.193695 7.94e-4,4.202907"
         id="path7" /></g><g
       id="g9"
       transform="translate(-31.287656,28.324708)"><path
         style="fill:none;fill-opacity:1;stroke:#e5e5e5;stroke-width:0.403426;stroke-linejoin:bevel;stroke-dasharray:none;stroke-opacity:1;paint-order:markers fill stroke"
         d="m 85.81582,62.193695 7.94e-4,4.202907"
         id="path8" /><path
         style="fill:none;fill-opacity:1;stroke:#e5e5e5;stroke-width:0.403426;stroke-linejoin:bevel;stroke-dasharray:none;stroke-opacity:1;paint-order:markers fill stroke"
         d="m 94.364637,62.193695 7.94e-4,4.202907"
         id="path9" /></g><g
       id="g11"
       transform="translate(-31.287642,-31.594596)"><path
         style="fill:none;fill-opacity:1;stroke:#e5e5e5;stroke-width:0.403426;stroke-linejoin:bevel;stroke-dasharray:none;stroke-opacity:1;paint-order:markers fill stroke"
         d="m 85.81582,62.193695 7.94e-4,4.202907"
         id="path10" /><path
         style="fill:none;fill-opacity:1;stroke:#e5e5e5;stroke-width:0.403426;stroke-linejoin:bevel;stroke-dasharray:none;stroke-opacity:1;paint-order:markers fill stroke"
         d="m 94.364637,62.193695 7.94e-4,4.202907"
         id="path11" /></g><g
       id="g13"
       transform="translate(-62.882851,0.04213394)"><path
         style="fill:none;fill-opacity:1;stroke:#e5e5e5;stroke-width:0.403426;stroke-linejoin:bevel;stroke-dasharray:none;stroke-opacity:1;paint-order:markers fill stroke"
         d="m 85.81582,62.193695 7.94e-4,4.202907"
         id="path12" /><path
         style="fill:none;fill-opacity:1;stroke:#e5e5e5;stroke-width:0.403426;stroke-linejoin:bevel;stroke-dasharray:none;stroke-opacity:1;paint-order:markers fill stroke"
         d="m 94.364637,62.193695 7.94e-4,4.202907"
         id="path13" /></g></g></svg>
