<?xml version="1.0" encoding="UTF-8" standalone="no"?>
<!-- Created with Inkscape (http://www.inkscape.org/) -->

<svg
   width="300.40173mm"
   height="281.45609mm"
   viewBox="0 0 300.40173 281.45607"
   version="1.1"
   id="svg1"
   xml:space="preserve"
   xmlns="http://www.w3.org/2000/svg"
   xmlns:svg="http://www.w3.org/2000/svg"><defs
     id="defs1" /><g
     id="layer1"
     transform="translate(-0.59781265,-64.668396)"><path
       style="fill:#000000"
       d="m 13.857797,344.26116 c -1.45054,-1.016 -0.52695,-2.45954 3.48909,-5.45334 2.69718,-2.01064 5.71554,-3.37023 12.761549,-5.74833 10.4499,-3.52695 14.23429,-5.22753 19.519291,-8.77135 11.69667,-7.84312 21.50944,-18.17945 26.30902,-27.71274 0.69675,-1.38394 1.22687,-2.55272 1.17804,-2.59729 -0.0488,-0.0446 -1.11185,-0.28739 -2.36227,-0.53962 -5.43645,-1.09661 -12.23211,-5.9802 -16.97435,-12.19833 -4.34502,-5.69729 -8.11114,-12.65402 -10.02843,-18.52434 -3.207231,-9.81989 -3.074281,-16.64184 0.58188,-29.85672 1.10084,-3.97891 1.64398,-5.32719 4.23574,-10.5149 7.52448,-15.06108 14.09044,-22.50876 27.74896,-31.47525 8.29732,-5.447 16.5514,-9.08805 26.549253,-11.71143 14.5612,-3.82079 35.71825,-4.24761 54.56375,-1.10077 8.87476,1.48192 14.21398,3.02042 19.24846,5.54646 1.52111,0.76322 2.96792,1.38767 3.21514,1.38767 0.24722,0 2.00795,-0.54174 3.91273,-1.20387 l 3.46323,-1.20386 4.40489,-0.004 c 4.29954,-0.004 4.46605,0.0188 6.96256,0.94593 2.07346,0.77003 3.0419,0.96482 5.11536,1.02891 3.03336,0.0938 4.70496,0.48055 7.38884,1.70972 3.58292,1.6409 6.40756,4.44659 8.30307,8.24733 0.92334,1.85142 2.22776,6.70922 1.97702,7.36264 -0.0881,0.2297 0.47183,1.18241 1.29585,2.20466 2.32919,2.88949 7.90095,10.40789 9.59735,12.95044 1.77535,2.66087 1.51923,2.53208 6.96115,3.50019 4.58493,0.81565 9.18345,2.3686 13.64166,4.60689 5.42653,2.72444 7.24603,4.37022 7.24603,6.5542 0,2.48822 -1.78498,3.85009 -6.0125,4.58731 -1.34193,0.23401 -3.57532,0.82308 -4.96311,1.30904 -3.20821,1.12342 -21.00034,8.25999 -25.68442,10.30223 -4.2471,1.85172 -8.11422,3.1753 -10.6337,3.63953 -1.1824,0.21786 -1.91029,0.50195 -2.02557,0.79056 -0.099,0.24777 -0.25174,2.53957 -0.33947,5.09288 -0.23128,6.73063 0.16336,9.41238 2.11881,14.3981 1.80457,4.60102 3.67826,8.36449 4.90238,9.84686 0.47102,0.57039 1.69295,1.45744 2.71538,1.97122 2.1663,1.08856 4.6831,3.55972 4.6831,4.59817 0,0.37287 -0.33078,0.98797 -0.73508,1.3669 -0.70393,0.65975 -0.89364,0.68802 -4.47594,0.66705 -3.14888,-0.0184 -3.9948,-0.12111 -5.34567,-0.64889 -2.84108,-1.10999 -5.23624,-3.72688 -9.75672,-10.65991 l -2.14865,-3.29536 -1.77049,1.30516 c -3.04387,2.24387 -9.10005,4.9347 -13.06689,5.80577 -1.98959,0.4369 -2.03652,0.69435 -0.54671,2.99937 1.4793,2.28877 2.31428,2.92466 6.88706,5.24492 2.19941,1.116 4.20569,2.33363 4.53508,2.75237 0.82482,1.04859 0.66674,2.53139 -0.3505,3.28765 -0.74673,0.55516 -0.92894,0.56294 -5.68372,0.24251 -2.70174,-0.18207 -5.39069,-0.46513 -5.97544,-0.62902 -1.53157,-0.42926 -3.97503,-2.82778 -6.91026,-6.78316 l -2.54145,-3.42472 -5.82582,-0.004 c -3.2042,-0.002 -8.25561,-0.21766 -11.22536,-0.47897 -4.48658,-0.39477 -5.85388,-0.41797 -8.08666,-0.1372 -2.43034,0.30561 -3.12137,0.58398 -3.13435,1.26265 -0.0194,1.01526 6.97192,1.89561 17.33102,2.18232 9.14345,0.25306 10.40194,0.48699 13.51934,2.513 4.24915,2.76154 5.30089,5.25487 2.46906,5.85336 -3.1207,0.65954 -24.59688,1.19507 -30.52398,0.76116 -6.59577,-0.48287 -6.67867,-0.51891 -10.43783,-4.53753 l -3.15119,-3.36867 -2.91783,0.82253 c -6.25185,1.76239 -13.03116,2.81949 -21.53203,3.35751 -2.57899,0.16322 -7.75828,0.50346 -11.50954,0.75609 -3.75126,0.25262 -9.183553,0.48832 -12.071773,0.52378 l -5.25129,0.0645 -2.30039,5.0845 c -3.68592,8.14693 -6.87524,12.90175 -12.17892,18.15708 -4.95941,4.91419 -9.57759,7.91262 -16.37924,10.63451 -4.14939,1.6605 -8.98689,2.89792 -26.173111,6.69502 -1.81949,0.40199 -4.12139,1.05862 -5.11535,1.45918 -3.159639,1.27329 -7.181819,3.5084 -9.181989,5.10238 -2.07369,1.65256 -2.517,1.79191 -3.50315,1.10119 z m 42.34629,-19.88837 c 3.03984,-1.77381 9.07108,-6.21135 11.42688,-8.40743 3.25065,-3.03026 7.01513,-7.36089 9.10426,-10.47348 3.28834,-4.89927 7.94363,-14.18816 7.38875,-14.74304 -0.4458,-0.4458 -3.45867,2.56699 -4.03511,4.03501 -2.21867,5.65027 -7.38213,13.10992 -13.2798,19.1853 -3.51726,3.62324 -6.63513,6.27886 -13.65666,11.63194 l -0.85061,0.64848 1.06043,-0.41864 c 0.58323,-0.23025 1.86207,-0.88641 2.84186,-1.45814 z M 173.64933,295.52252 c 3.28236,-0.17059 6.73522,-0.39932 7.67303,-0.50828 l 1.70512,-0.19811 -1.34591,-0.79982 c -2.33053,-1.38494 -3.84908,-1.6583 -9.73735,-1.75287 -6.53795,-0.105 -10.34765,-0.33181 -14.51518,-0.86415 -3.72278,-0.47554 -4.61821,-0.75063 -6.53544,-2.00782 l -1.44176,-0.9454 -1.93567,0.55355 c -1.06462,0.30446 -1.9725,0.59039 -2.01752,0.63541 -0.045,0.045 0.87504,1.19721 2.04458,2.56043 2.50939,2.92495 2.65942,2.98604 8.14964,3.31808 5.73888,0.34708 11.39649,0.34991 17.95646,0.009 z m 21.42962,-2.69541 c -5.45853,-2.81948 -8.09519,-6.48059 -8.63813,-11.99442 -0.14036,-1.42543 -0.31958,-2.06035 -0.58159,-2.06035 -0.42254,0 -3.78487,1.38271 -4.29574,1.76656 -0.35401,0.26599 0.9535,2.87949 2.73864,5.4741 1.72379,2.50544 5.36159,6.87567 6.15736,7.39709 0.85869,0.56263 2.94453,0.90349 5.78265,0.94497 l 1.84721,0.027 z m 29.58182,-5.48067 c 0,-0.12963 -0.81979,-0.64763 -1.82177,-1.15112 -3.1869,-1.60142 -5.13321,-4.24649 -7.86108,-10.68336 -0.74133,-1.74929 -1.69598,-4.16112 -2.12146,-5.35961 -0.42547,-1.1985 -0.87497,-2.17909 -0.99888,-2.17909 -0.12392,0 -0.37,0.43844 -0.54685,0.9743 -0.17685,0.53587 -0.82619,1.75508 -1.44297,2.70936 -0.61678,0.95428 -1.12142,1.83589 -1.12142,1.95912 0,0.31792 4.34508,6.92211 5.90684,8.97795 2.40247,3.16251 3.60183,4.0817 5.99903,4.59764 1.88391,0.40547 4.00856,0.48752 4.00856,0.15481 z m -45.62805,-4.38235 c -0.26449,-0.86046 -0.23641,-0.84848 -1.08387,-0.46235 -1.06704,0.48617 -2.16812,-0.0479 -2.16812,-1.05161 0,-1.10655 1.30947,-2.15408 4.91551,-3.93226 4.54997,-2.24365 8.63752,-3.26675 9.52115,-2.38311 0.58916,0.58916 0.3916,1.72869 -0.41059,2.36834 -0.6609,0.52698 -0.72731,0.7289 -0.5502,1.67296 0.19855,1.0584 0.2163,1.07096 1.24894,0.88416 1.83671,-0.33224 6.08116,-1.87787 8.67077,-3.15749 6.75053,-3.33569 9.37444,-6.94357 11.07442,-15.22737 0.47582,-2.31863 0.80808,-4.27273 0.73836,-4.34245 -0.0697,-0.0697 -0.69878,0.005 -1.3979,0.16623 -3.19526,0.73652 -19.64422,0.12367 -23.80637,-0.88697 -5.91092,-1.43527 -10.03019,-3.76137 -15.49898,-8.75208 -2.38856,-2.17975 -3.3704,-2.86255 -7.87947,-5.47959 -8.012,-4.65011 -10.16749,-7.451 -11.46955,-14.90378 -0.58036,-3.32186 -0.57954,-7.93628 0.002,-10.18968 0.66892,-2.59281 2.23377,-5.35116 3.9643,-6.98782 1.81003,-1.71185 2.74237,-1.86415 3.91554,-0.63964 0.91305,0.95303 0.95307,1.5291 0.19179,2.76089 -1.7018,2.75356 -2.3029,9.38009 -1.17283,12.9292 0.79103,2.4843 2.39202,5.06083 4.39722,7.07659 2.78349,2.79815 5.75604,4.00233 9.87987,4.00233 2.63665,0 3.55096,0.50676 3.22897,1.78967 -0.27679,1.10282 -1.02151,1.39511 -3.28103,1.28774 -1.08171,-0.0514 -1.96646,-0.0152 -1.96611,0.0805 0.001,0.3891 4.80678,4.73815 6.39254,5.78554 7.48202,4.94184 14.48345,6.27364 26.87569,5.11224 12.16643,-1.14023 15.8721,-1.99875 23.85385,-5.52644 1.48488,-0.65626 6.47235,-2.71105 11.08327,-4.56619 4.61092,-1.85514 8.90201,-3.62455 9.53574,-3.93201 1.57897,-0.76606 7.73882,-2.87293 8.39958,-2.87293 0.4473,0 0.53679,-0.21472 0.53679,-1.28797 0,-0.70838 0.19182,-1.74707 0.42627,-2.30819 0.23446,-0.56113 0.42628,-1.0769 0.42628,-1.14615 0,-0.214 -5.73614,-2.8161 -7.38884,-3.35183 -0.85964,-0.27866 -1.69219,-0.60783 -1.85008,-0.73148 -0.47033,-0.36832 -4.71296,-1.40412 -5.8054,-1.41733 -1.52273,-0.0184 -8.74993,-1.55907 -9.24639,-1.97109 -0.517,-0.42908 -0.57167,-1.7434 -0.0924,-2.22263 0.26525,-0.26524 0.19794,-0.34102 -0.30286,-0.34102 -0.81546,0 -1.67235,-0.43914 -2.66688,-1.36673 -0.59982,-0.55945 -0.78151,-0.99214 -0.78151,-1.86116 0,-0.62273 0.19485,-1.34755 0.433,-1.61071 0.39509,-0.43656 0.13995,-0.86006 -2.9129,-4.83503 -5.71141,-7.43654 -12.97107,-15.2212 -17.07086,-18.30539 -2.90409,-2.18467 -6.62694,-4.16527 -9.39804,-4.99985 -1.80512,-0.54366 -2.54824,-0.6116 -5.39954,-0.49364 -2.96625,0.12272 -3.65713,0.26011 -6.71658,1.33567 -1.87563,0.65938 -3.69443,1.26842 -4.04178,1.35342 -0.41883,0.1025 -1.85608,-0.42555 -4.26723,-1.56779 -4.63207,-2.19435 -8.51677,-3.4834 -13.7758,-4.57116 -15.19095,-3.14206 -31.48162,-3.88328 -46.83035,-2.13075 -15.4177,1.7604 -29.170513,7.1725 -42.015683,16.5343 -7.89946,5.75728 -12.29177,10.33839 -17.32316,18.0678 -3.49278,5.36575 -7.49979,13.76774 -8.70704,18.25712 -0.68117,2.53309 -1.09313,10.81414 -0.74018,14.87892 0.38179,4.397 1.26502,8.91681 2.29275,11.73285 1.43685,3.93707 5.54597,9.31004 9.0298,11.80712 l 1.22095,0.87513 1.9051,-1.447 c 4.3718,-3.32058 11.03188,-5.53031 18.2458,-6.05373 3.7046,-0.2688 11.43787,0.3371 14.64606,1.14751 6.444253,1.62786 13.942373,5.74255 21.046113,11.54933 3.75083,3.06602 5.26918,3.62713 7.93556,2.93263 2.8766,-0.74926 4.89993,-2.61565 5.9932,-5.52835 0.65929,-1.75648 0.66278,-7.09883 0.006,-9.79124 -0.94413,-3.87275 -3.87882,-9.07357 -7.89285,-13.98767 -1.99535,-2.44275 -3.62071,-3.88714 -5.39506,-4.79431 -1.40952,-0.72065 -1.66868,-0.67315 -1.66868,0.30587 0,0.3437 -0.44275,1.50531 -0.98388,2.58136 -2.82288,5.6133 -9.25368,8.68908 -16.31563,7.80358 -4.007397,-0.50248 -6.687987,-1.8415 -9.320767,-4.65596 -3.664,-3.91682 -5.2772,-8.43471 -5.25732,-14.72347 0.0156,-4.93983 1.25236,-9.07247 3.91477,-13.08156 4.53105,-6.82288 15.300017,-13.74092 23.328987,-14.98665 2.83389,-0.4397 7.34678,-0.39606 9.67426,0.0935 5.0845,1.06955 8.76422,3.08515 12.43703,6.81247 3.05844,3.10384 5.3462,6.46157 7.44784,10.93112 3.11636,6.62756 3.78326,7.88203 5.11761,9.62645 1.44859,1.89378 5.09088,5.18619 10.87486,9.83024 4.45358,3.57585 7.30196,6.28741 7.95701,7.57481 1.15128,2.26267 -0.11526,4.47219 -2.39063,4.17055 -2.29076,-0.30368 -8.97626,-4.18907 -15.59485,-9.06321 -10.29083,-7.5785 -13.39263,-9.13492 -20.31794,-10.19506 -2.01117,-0.30787 -2.52001,-0.29105 -4.08962,0.13521 -0.98596,0.26776 -2.0955,0.71632 -2.46564,0.99679 -0.66753,0.50582 -0.65255,0.51152 1.84721,0.70243 3.5211,0.26891 5.76437,0.87428 9.05647,2.44401 13.45122,6.41374 20.29346,18.46516 20.31411,35.77977 l 0.005,4.36699 0.63941,-0.18522 c 1.4379,-0.4165 7.09486,-0.45285 10.87013,-0.0699 2.18823,0.222 6.32111,0.41923 9.18416,0.4383 l 5.20555,0.0347 z m 31.71208,-51.13554 c -0.58373,-0.3955 -1.09177,-1.03828 -1.24619,-1.5767 -0.87845,-3.06299 3.3992,-4.82257 5.02658,-2.06765 1.56843,2.65515 -1.24184,5.36428 -3.78039,3.64435 z m 9.99236,-36.11204 c -1.27022,-2.58019 -3.59822,-5.02914 -5.93659,-6.24502 -3.12406,-1.62442 -3.5369,-1.59937 -1.49725,0.0908 2.09487,1.73598 7.93781,7.65812 7.94346,8.05116 0.002,0.14328 0.0865,0.17777 0.18762,0.0766 0.10112,-0.10112 -0.21264,-0.98925 -0.69724,-1.97362 z"
       id="path12" /><path
       style="opacity:0.488825;fill:#9fc8c6;fill-opacity:0.734913;stroke:none;stroke-width:0.79375;stroke-linejoin:bevel;stroke-dasharray:none;stroke-opacity:1;paint-order:markers fill stroke"
       d="M 201.02171,113.84668 180.91222,215.10153 282.40843,152.1141 Z"
       id="path17" /><ellipse
       style="opacity:1;fill:#9fc8c6;fill-opacity:1;stroke-width:0.287659;stroke-linejoin:bevel;paint-order:markers fill stroke"
       id="path10"
       cx="251.01064"
       cy="113.84668"
       rx="49.988918"
       ry="49.178284" /><path
       style="opacity:1;fill:#dfbba9;fill-opacity:1;stroke-width:5.2452;stroke-linejoin:bevel;stroke-dasharray:none;paint-order:markers fill stroke"
       d="m 238.71402,141.28354 5.11153,1.48724 6.35331,-0.82303 2.3103,-0.96744 2.61351,0.66421 6.93087,0.12988 3.94197,-1.61719 0.62087,0.82303 -1.68939,3.46544 -5.86238,3.85531 -4.54838,0.18771 -1.63165,-1.74716 -1.67497,1.77604 -4.93367,0.57758 -7.83584,-5.22051 z"
       id="path13" /><path
       style="opacity:1;fill:#fedccb;fill-opacity:1;stroke-width:5.2452;stroke-linejoin:bevel;stroke-dasharray:none;paint-order:markers fill stroke"
       d="m 232.06847,132.81097 5.35234,7.94725 6.81817,2.25519 8.25018,-2.0331 8.31306,0.77102 5.17329,-1.59412 4.91725,-5.39791 1.44456,-4.88885 6.22985,-8.92764 2.4258,-10.34881 -1.95778,-6.63879 -2.23494,-7.20617 -5.38001,-5.21979 -7.02831,-0.9255 -11.08585,7.32895 -2.65073,4.19135 -9.52631,-8.080933 -7.83088,-1.996593 -7.39422,4.191526 -3.05686,5.63925 -1.81676,9.79825 2.78597,10.48466 z"
       id="path14" /><path
       style="opacity:1;fill:#dfbba9;fill-opacity:1;stroke-width:5.2452;stroke-linejoin:bevel;stroke-dasharray:none;paint-order:markers fill stroke"
       d="m 227.23856,94.610017 1.5061,-4.995762 4.90983,-1.780274 3.37643,-4.767785 10.53277,-4.790871 11.0641,1.679242 8.216,5.795008 2.70498,1.834643 1.42783,-0.143779 2.52468,5.326308 -5.59521,-1.700253 -4.83945,0.413432 -8.99973,5.949794 -3.41154,4.69433 -7.80252,-6.61869 -5.63923,-2.460546 -4.31482,-0.771901 c 0,0 -4.8634,3.132577 -5.66022,2.337104 z"
       id="path15" /><path
       style="fill:#000000;stroke-width:5.24519;stroke-dasharray:none"
       d="m 280.77896,113.16132 c -0.51985,3.80438 -1.9606,7.85684 -4.12521,11.60327 -0.67283,1.16448 -2.41281,3.591 -3.41082,4.7566 -0.48315,0.56429 -0.51256,0.6287 -0.60276,1.32061 -0.0676,0.51809 -0.20961,0.97769 -0.49383,1.59738 -0.40544,0.88404 -1.75962,3.24941 -2.38192,4.16053 -0.52113,0.76301 -1.63218,2.07651 -2.32936,2.75375 l -0.62493,0.60707 0.15733,0.27111 c 0.2322,0.40013 0.13041,1.71778 -0.1872,2.4241 -0.30102,0.66938 -1.03759,1.54203 -2.24842,2.66383 -2.1305,1.97385 -4.68838,3.44992 -6.64182,3.83279 -0.67259,0.13183 -0.9836,0.13827 -2.00271,0.0415 -1.40319,-0.13331 -1.56106,-0.20954 -2.4706,-1.1941 -0.30888,-0.33435 -0.57607,-0.58959 -0.59377,-0.56723 -0.0176,0.0224 -0.20224,0.2746 -0.41012,0.5605 -0.72822,1.0016 -0.92454,1.14476 -1.95003,1.422 -2.21023,0.59749 -4.42599,0.12134 -7.48275,-1.60805 -1.69685,-0.96 -3.77071,-2.64035 -4.33405,-3.51167 -0.5252,-0.81228 -0.78029,-2.23293 -0.48756,-2.7152 0.0822,-0.13531 -0.0384,-0.2696 -0.73762,-0.82193 -0.45969,-0.36311 -1.28125,-1.13577 -1.82569,-1.71704 -1.01901,-1.08793 -2.82467,-3.50927 -3.51179,-4.7092 -0.38347,-0.66968 -0.70286,-1.55672 -0.68424,-1.90033 0.005,-0.0977 -0.20329,-0.36743 -0.46875,-0.60613 -0.8385,-0.7539 -3.35581,-3.5823 -4.04501,-4.54489 -3.10647,-4.33858 -5.01278,-8.85477 -5.72432,-13.5614 -0.16814,-1.11216 -0.17387,-1.42003 -0.0652,-3.50582 0.1011,-1.9389 0.16534,-2.50924 0.42387,-3.75098 0.83449,-4.00893 2.3332,-7.50399 4.38427,-10.22438 0.44589,-0.59141 0.47879,-0.66948 0.41319,-0.98082 -0.32445,-1.5399 1.57282,-5.227926 3.33135,-6.475676 0.58102,-0.412249 1.77449,-0.947218 2.60965,-1.169742 0.42813,-0.114108 0.53692,-0.197192 0.84719,-0.647233 1.17323,-1.70166 2.75588,-3.160748 5.18168,-4.77709 3.16082,-2.106113 4.19253,-2.618812 6.57189,-3.265851 3.41528,-0.928773 4.82435,-1.063718 7.39303,-0.708089 3.78296,0.523728 4.69637,0.827101 8.55004,2.839706 2.21573,1.157187 3.8451,2.338997 5.13891,3.727398 l 0.90293,0.968922 0.99165,0.213191 c 1.14855,0.24691 1.80754,0.514618 2.60313,1.0575 1.73107,1.181202 3.59513,4.177636 3.56247,5.726552 -0.009,0.460429 0.0183,0.522269 0.41326,0.909751 0.52305,0.51325 1.64933,1.973031 2.38594,3.092471 1.53032,2.32571 2.92824,5.67928 3.62739,8.70207 0.62525,2.70326 0.72788,4.95505 0.35139,7.71028 z m -0.87886,-1.19256 c -0.0492,-0.0343 -0.15486,-0.22527 -0.2346,-0.42441 -0.19808,-0.49461 -1.31258,-1.70916 -1.88597,-2.05528 -0.60679,-0.36628 -1.438,-0.62894 -2.10276,-0.66444 -0.29027,-0.0155 -1.13152,0.0464 -1.86942,0.13753 -2.19317,0.27093 -3.3927,0.10556 -4.39239,-0.60577 -0.21578,-0.15352 -1.09096,-1.06142 -1.94484,-2.01755 -1.50649,-1.68688 -1.57998,-1.75344 -2.48042,-2.24615 -0.51035,-0.27926 -1.30361,-0.71513 -1.76282,-0.9686 -1.18028,-0.65152 -2.16576,-1.56062 -3.14385,-2.90025 -0.8108,-1.11048 -0.82908,-1.12762 -1.34974,-1.26674 -0.2903,-0.0776 -0.71172,-0.21895 -0.93649,-0.31417 -0.63563,-0.26926 -1.05203,-0.24886 -1.7776,0.087 -0.72294,0.33472 -0.8561,0.35153 -1.05245,0.13267 -0.44906,-0.50051 0.94133,-1.4263 2.05648,-1.3693 0.21612,0.0105 0.75901,0.15384 1.20644,0.31735 0.80519,0.29421 0.81873,0.29585 1.32886,0.16127 0.28346,-0.0748 1.07785,-0.4263 1.76533,-0.78115 1.47739,-0.7626 2.14436,-1.02691 2.94657,-1.16771 0.83185,-0.146 1.29887,0.0197 1.27541,0.45243 -0.0163,0.30086 -0.16942,0.38123 -0.88506,0.46452 -0.66968,0.078 -1.76459,0.5103 -3.31071,1.30732 -0.50868,0.26223 -0.97237,0.4898 -1.03041,0.50572 -0.21763,0.0597 1.45066,2.13172 2.27443,2.82493 0.1759,0.14803 1.12892,0.71961 2.11785,1.27018 l 1.79804,1.00104 1.688,1.85077 c 1.99617,2.18866 2.24148,2.36021 3.47263,2.42839 0.43036,0.0238 1.22817,-0.0208 1.77291,-0.099 1.45995,-0.20987 2.6694,-0.19669 3.41703,0.0373 1.02649,0.32121 1.86726,0.83781 2.57577,1.58269 0.38832,0.40824 0.64892,0.61918 0.6538,0.52923 0.004,-0.0823 -0.0294,-0.63748 -0.0752,-1.23383 -0.1912,-2.48679 -0.93678,-5.34675 -2.10999,-8.09365 -0.4998,-1.17022 -0.51468,-1.19201 -0.72881,-1.06773 -0.12015,0.0698 -0.62887,0.20554 -1.13035,0.30172 -1.02706,0.19698 -1.33888,0.31958 -2.20307,0.86629 -1.23534,0.78145 -2.07571,0.96917 -3.23924,0.7235 -0.94067,-0.19859 -1.25631,-0.41394 -1.23315,-0.84129 0.0173,-0.32131 0.0256,-0.32741 0.39816,-0.29511 0.20923,0.0179 0.6835,0.10438 1.054,0.1919 0.90485,0.21348 1.31231,0.1145 2.53152,-0.61443 1.08029,-0.64593 1.47003,-0.79076 2.73518,-1.01635 l 0.88672,-0.15811 -0.19388,-0.39338 c -0.28554,-0.57944 -1.54443,-2.43448 -2.2296,-3.28549 -1.90664,-2.368054 -4.62783,-3.756876 -7.6857,-3.922609 -1.42034,-0.0769 -2.2572,0.104774 -3.9304,0.853341 -1.82063,0.814599 -2.33513,1.105036 -4.07345,2.299598 -2.02104,1.38886 -2.59995,1.85012 -3.81279,3.03799 -1.27819,1.25186 -2.11698,2.25692 -2.62977,3.15107 -0.22002,0.38364 -0.56714,0.91853 -0.77138,1.18862 -0.24716,0.32684 -0.37727,0.60027 -0.38903,0.81754 -0.0179,0.32855 1.86622,37.72308 1.90109,37.73314 0.0105,0.003 0.25323,0.13247 0.53991,0.28773 0.88916,0.48162 1.45569,0.57268 4.04665,0.65047 3.09558,0.0929 4.3547,-0.0527 6.0287,-0.69739 1.29835,-0.50001 2.28531,-1.21131 3.51162,-2.53085 1.09992,-1.18355 1.85643,-2.2505 2.93567,-4.14035 0.89344,-1.56446 1.13458,-2.03639 1.36774,-2.67668 l 0.0953,-0.26151 -0.2302,0.15866 c -0.1266,0.0873 -0.55483,0.4128 -0.95161,0.72343 -0.92403,0.72343 -1.10797,0.79796 -1.41395,0.57292 -0.28569,-0.21015 -0.28502,-0.49832 0.001,-0.70489 0.78949,-0.56889 2.63049,-2.05762 2.998,-2.42437 0.64961,-0.64824 2.96204,-3.76041 3.62816,-4.88293 1.298,-2.1874 2.43608,-4.77229 3.1841,-7.23204 0.3657,-1.20255 0.83871,-3.33026 0.97593,-4.38987 0.0304,-0.23483 0.0678,-0.52046 0.0832,-0.63477 0.0154,-0.11424 -0.0118,-0.23587 -0.0618,-0.27015 z m -2.58893,4.23718 c -0.12962,0.11634 -0.77357,0.0197 -1.30539,-0.19622 -0.90124,-0.36574 -1.88211,-0.58327 -3.47668,-0.77104 -1.52126,-0.17907 -1.5232,-0.17905 -2.15122,0.0337 -0.34571,0.11713 -0.86804,0.34846 -1.16068,0.51405 -0.90934,0.51458 -2.08908,0.98831 -2.82615,1.13484 -1.58059,0.31422 -2.89659,0.19096 -5.08906,-0.47667 -1.62413,-0.49454 -2.34501,-0.57875 -3.18393,-0.37195 -0.76546,0.18871 -1.84206,0.78946 -2.8248,1.57627 -0.6797,0.5442 -0.91857,0.6305 -1.1209,0.40498 -0.32689,-0.36435 0.12883,-0.93762 1.45631,-1.83172 1.46189,-0.98467 2.67152,-1.33926 3.99099,-1.16992 0.3659,0.0469 1.32048,0.28318 2.12129,0.52494 1.29531,0.39104 1.59266,0.44733 2.69426,0.51001 1.11404,0.063 1.31612,0.0479 2.01473,-0.15378 0.73727,-0.21289 2.13596,-0.82466 2.2455,-0.98213 0.0281,-0.0404 -0.35615,-0.12437 -0.85389,-0.18653 -1.12068,-0.14 -1.73484,-0.30305 -2.3854,-0.63305 -0.70696,-0.3586 -1.18421,-0.82571 -2.01203,-1.96933 -0.78209,-1.08046 -1.36925,-1.65258 -2.16584,-2.11039 -0.55145,-0.31693 -1.86235,-0.81811 -2.48377,-0.9496 -0.79111,-0.16741 -0.9006,-0.21177 -0.98905,-0.40098 -0.0691,-0.14785 -0.0514,-0.24842 0.0735,-0.4182 0.22072,-0.30008 0.77972,-0.26751 1.945,0.11332 2.21277,0.72323 3.13814,1.43538 4.74099,3.6486 0.58205,0.80371 1.13862,1.22193 2.00002,1.50286 0.48968,0.1597 1.95501,0.34789 5.65976,0.72689 2.58237,0.26409 4.00776,0.62005 4.87834,1.21797 0.28423,0.19522 0.38824,0.55151 0.20816,0.71306 z m -6.1131,11.36955 c -0.22819,0.20472 -0.45288,0.0882 -1.20658,-0.62556 -0.99959,-0.94665 -1.8793,-1.5535 -2.79215,-1.9261 -0.68003,-0.27754 -0.873,-0.31239 -2.12889,-0.38441 -1.30446,-0.0747 -1.46254,-0.0628 -2.84892,0.21597 l -1.46784,0.29518 0.18173,0.28689 c 0.38184,0.60282 1.18318,1.48363 1.70626,1.87545 0.71582,0.5362 1.39135,0.82276 2.50079,1.06082 1.26814,0.2721 1.30299,0.28307 1.46153,0.45978 0.30834,0.34366 0.0118,0.71024 -0.54994,0.6798 -0.53592,-0.0291 -1.92738,-0.36732 -2.58446,-0.6283 -1.20867,-0.48005 -2.25933,-1.40868 -3.3861,-2.99286 -0.58516,-0.82269 -0.67997,-0.91186 -1.16228,-1.09314 -0.73551,-0.27643 -1.96904,-1.22202 -3.13999,-2.40704 -1.78975,-1.81126 -2.12676,-2.29648 -1.79913,-2.59041 0.29932,-0.26855 0.56918,-0.0885 1.77782,1.18651 2.09895,2.21414 3.18827,2.99036 4.38543,3.12495 0.50659,0.0569 0.91604,0.0135 2.06603,-0.21877 1.35263,-0.2733 1.51553,-0.28543 2.86323,-0.21314 1.65249,0.0886 2.2234,0.23952 3.4052,0.9003 0.79602,0.44506 2.2193,1.60912 2.62303,2.14531 0.25452,0.33808 0.29201,0.67222 0.0952,0.84877 z m -3.19038,5.98289 c -1.09678,0.64926 -1.87435,1.02303 -2.10251,1.01066 -0.24958,-0.0135 -0.40653,-0.20158 -0.39199,-0.4697 0.0131,-0.24198 0.19449,-0.36939 1.79421,-1.2604 0.87001,-0.48459 1.03329,-0.5443 1.24752,-0.45617 0.18316,0.0753 0.24981,0.1771 0.25936,0.39597 0.0118,0.27279 -0.0476,0.3304 -0.80659,0.77964 z m -4.05953,1.65226 c -0.0976,0.10227 -0.40445,0.23816 -0.68208,0.30195 -0.46661,0.10714 -0.51985,0.10241 -0.70364,-0.0636 -0.40398,-0.36504 0.0153,-0.81474 0.89341,-0.95832 0.24011,-0.0392 0.34699,-0.005 0.49269,0.1573 0.22674,0.25274 0.22669,0.32458 -3.6e-4,0.5628 z m -1.17878,-2.32688 c -0.20253,0.0793 -0.31455,0.0368 -0.81035,-0.30762 -0.50509,-0.35086 -0.661,-0.40866 -1.27667,-0.4733 -0.41043,-0.043 -1.08449,-0.0259 -1.62513,0.0414 -1.40277,0.17484 -2.29353,0.0504 -3.21304,-0.44899 -1.07157,-0.58193 -2.24136,-1.48182 -2.29668,-1.76673 -0.063,-0.32465 0.0351,-0.50196 0.30875,-0.55497 0.17849,-0.0347 0.44338,0.11082 1.15568,0.63475 1.70268,1.25238 2.19315,1.40603 3.85101,1.20648 1.38443,-0.16661 2.53987,-0.077 3.16262,0.2454 0.89586,0.46369 1.28631,1.21094 0.74381,1.42349 z m 9.9581,-41.347897 c -0.4818,-1.102263 -0.94814,-1.819423 -1.79203,-2.75586 -0.56197,-0.623587 -0.94794,-0.95642 -1.38668,-1.195785 -0.71468,-0.3899 -1.99801,-0.791551 -2.64395,-0.827506 -0.45057,-0.02511 -0.46867,-0.03878 -1.4683,-1.114054 -1.57144,-1.690236 -3.0544,-2.72059 -6.18852,-4.299688 -2.79822,-1.409856 -3.58534,-1.665995 -6.43129,-2.09285 -2.11361,-0.317005 -3.66913,-0.339248 -4.98989,-0.07125 -2.70095,0.547903 -4.99295,1.311062 -6.32483,2.105955 -3.8314,2.286689 -5.91592,3.951855 -7.33296,5.857751 -0.44221,0.594769 -0.83197,1.117683 -0.86613,1.162038 -0.0342,0.0443 -0.25286,0.112662 -0.48595,0.151745 -0.23309,0.03904 -0.83231,0.23805 -1.33156,0.442065 -1.48884,0.608428 -2.59876,1.7241 -3.45781,3.475689 -0.31438,0.641018 -0.77303,1.940735 -0.78902,2.235905 -0.004,0.07454 0.28426,-0.07598 0.66367,-0.346348 1.74273,-1.242071 3.41377,-1.928693 5.39593,-2.217145 0.62379,-0.09071 1.10439,-0.09123 2.04418,-0.0026 l 1.22867,0.116606 0.8149,-0.515157 c 1.55032,-0.980017 1.83624,-1.475968 2.06115,-3.575192 0.22748,-2.122925 0.55532,-2.927928 1.49382,-3.66787 0.54467,-0.429418 0.97166,-0.475811 1.08477,-0.117921 0.0883,0.279723 -0.10425,0.618354 -0.49892,0.877135 -0.6228,0.408319 -1.06584,1.706669 -1.15713,3.391052 -0.0464,0.856654 -0.28055,1.65883 -0.66704,2.285598 -0.26524,0.430114 -1.23697,1.335764 -1.74232,1.623808 -0.2462,0.140322 -0.24568,0.140756 0.4568,0.385918 1.17818,0.411184 1.85946,0.725534 3.45254,1.592981 2.10281,1.144997 2.85744,1.627067 4.26673,2.725637 1.5491,1.20755 2.40771,2.05632 3.38027,3.34153 1.02071,1.34883 1.03791,1.34862 1.88485,-0.0225 0.34548,-0.5593 0.86043,-1.31694 1.14431,-1.68365 0.63489,-0.8201 2.41549,-2.58622 3.47169,-3.44345 1.26324,-1.025267 4.23197,-2.975546 5.28782,-3.473758 0.53554,-0.252708 0.97592,-0.480859 0.97862,-0.506993 0.003,-0.02616 -0.31052,-0.231648 -0.69601,-0.456696 -1.35292,-0.789872 -1.93922,-1.714741 -2.32451,-3.666716 -0.33622,-1.703458 -0.64797,-2.393209 -1.27144,-2.813083 -0.77024,-0.518732 -0.95919,-0.982974 -0.47694,-1.171897 0.20016,-0.07848 0.32363,-0.04693 0.75056,0.191407 0.99059,0.553005 1.58232,1.614475 1.92719,3.457088 0.35426,1.892867 0.8086,2.589454 2.1404,3.28161 0.3928,0.204146 0.82228,0.433086 0.95443,0.508729 0.21142,0.120944 0.34382,0.108587 1.10439,-0.104381 0.75556,-0.211494 1.03209,-0.238181 2.20019,-0.212349 2.07631,0.04588 3.86966,0.544236 5.624,1.562745 0.44579,0.258808 0.81273,0.42951 0.81545,0.379331 0.003,-0.05009 -0.13413,-0.409383 -0.3041,-0.798258 z m -1.31679,-1.16773 c -0.15717,0.239075 -0.64391,0.174922 -1.52226,-0.200729 -1.06245,-0.454303 -1.21659,-0.581045 -1.15999,-0.953777 0.0401,-0.264526 0.0848,-0.303767 0.35799,-0.315231 0.39916,-0.01683 2.07599,0.702411 2.28677,0.980727 0.17925,0.236709 0.18177,0.269509 0.0375,0.48897 z m -4.72713,-2.016418 c -0.34117,0.303097 -2.27666,1.046431 -2.81395,1.080716 -0.48431,0.03089 -0.68754,-0.178261 -0.53235,-0.547943 0.0833,-0.198572 0.33949,-0.326629 1.45518,-0.727546 1.45594,-0.523202 1.9264,-0.580585 2.07925,-0.253588 0.0774,0.165575 0.046,0.240363 -0.18813,0.448361 z m -8.10762,0.843113 c -0.2169,0.329928 -0.55064,0.165996 -1.33215,-0.654374 -0.85799,-0.900641 -1.30046,-1.178063 -2.28489,-1.432506 -0.99585,-0.257425 -1.11692,-0.332042 -1.09822,-0.676997 0.022,-0.405334 0.32986,-0.491073 1.13762,-0.316742 1.24076,0.267786 1.9221,0.661013 2.9377,1.695505 0.4624,0.470999 0.77203,0.942826 0.75312,1.14763 -0.004,0.0418 -0.0548,0.148682 -0.11319,0.237484 z m -3.10222,3.512906 c -0.21816,0.27812 -0.42559,0.244834 -1.10431,-0.177157 -0.31948,-0.198638 -0.9742,-0.513592 -1.45491,-0.699873 -0.75055,-0.290845 -1.01646,-0.346426 -1.8821,-0.393332 -2.16518,-0.117395 -3.74472,0.364489 -5.35571,1.63376 -0.62248,0.490443 -1.08378,0.412631 -1.05179,-0.177472 0.0105,-0.195956 0.14196,-0.35559 0.53699,-0.652955 1.86365,-1.402691 3.51125,-1.886678 5.96917,-1.753469 1.11272,0.06034 1.25854,0.09084 2.18622,0.458143 1.09718,0.434374 2.09904,1.021111 2.23304,1.307776 0.10925,0.233724 0.11266,0.213269 -0.0766,0.454592 z m -2.4861,-10.706578 c -0.26082,0.193971 -2.08181,0.127649 -2.37285,-0.0865 -0.26838,-0.197415 -0.27813,-0.456578 -0.025,-0.661947 0.14617,-0.118578 0.38752,-0.137127 1.20559,-0.09281 0.56258,0.0305 1.10337,0.104248 1.20177,0.163997 0.21908,0.133 0.21372,0.51103 -0.009,0.677118 z m -4.55129,0.06442 c -0.25019,0.140637 -1.57649,0.355576 -2.03932,0.330494 -0.51144,-0.02774 -0.68672,-0.422293 -0.31978,-0.719869 0.17521,-0.142109 1.67272,-0.442445 2.10967,-0.423121 0.46813,0.02011 0.64321,0.591142 0.24943,0.812496 z m -3.20379,5.345683 c -1.49519,0.548154 -1.9756,0.893029 -2.77541,1.992452 -0.50939,0.700228 -0.81368,0.885785 -1.11024,0.677065 -0.2884,-0.20295 -0.19535,-0.549429 0.34582,-1.287794 0.70492,-0.961797 1.35982,-1.528131 2.184,-1.888661 1.31852,-0.576799 1.86746,-0.559525 1.83402,0.05771 -0.0131,0.242649 -0.0761,0.301859 -0.47819,0.449227 z m -8.80326,3.330122 c -0.25043,0.224681 -0.19251,0.229663 -1.70797,-0.146684 -1.09356,-0.271586 -1.79052,-0.528777 -1.78351,-0.658174 10e-4,-0.02064 -0.0185,-0.100962 -0.0436,-0.178682 -0.0735,-0.227585 0.2489,-0.436596 0.64063,-0.415365 0.1975,0.01052 0.75801,0.122917 1.24561,0.249343 0.48759,0.126465 1.04459,0.265814 1.23775,0.309762 0.20397,0.04627 0.40754,0.170347 0.48558,0.295682 0.17345,0.278593 0.16673,0.327707 -0.0745,0.544144 z m -5.37224,0.843087 c -0.28364,0.304188 -1.80369,1.06105 -2.09881,1.045051 -0.335,-0.01814 -0.50466,-0.317387 -0.33679,-0.593968 0.16185,-0.26663 1.75158,-1.151942 2.14403,-1.193983 0.49157,-0.05258 0.65209,0.356312 0.29157,0.7429 z m 35.03225,49.052382 c -0.0297,-0.0331 -0.24592,0.0569 -0.48071,0.20011 -0.58389,0.3558 -1.6568,0.81397 -2.48893,1.06291 -1.4582,0.43621 -3.30407,0.56055 -6.125,0.41256 -1.78535,-0.0941 -2.69504,-0.2531 -3.37917,-0.59245 -0.24854,-0.12331 -0.46966,-0.20817 -0.49139,-0.18868 -0.0603,0.0542 0.10464,3.78259 0.19311,4.36629 0.0873,0.57564 0.47763,1.22215 0.9561,1.58374 0.44528,0.3365 1.70394,0.78554 2.29104,0.81736 1.42699,0.0773 3.53818,-0.78359 5.67733,-2.31519 1.7233,-1.23387 3.42116,-3.03678 3.81358,-4.04954 0.0977,-0.25204 0.12253,-1.19851 0.0341,-1.29709 z m -13.93812,2.74105 c -0.0419,-0.71168 -0.0993,-1.41548 -0.12739,-1.56402 l -0.0511,-0.27005 -0.40017,0.26294 c -0.82538,0.54229 -2.61584,0.94866 -5.31654,1.20664 -2.77132,0.26472 -4.92379,-0.004 -6.68658,-0.83379 l -0.56293,-0.26507 -0.0206,0.39824 c -0.0473,0.92257 0.59201,1.84166 2.13498,3.06691 2.91044,2.31109 6.27144,3.64241 8.21444,3.25379 1.20121,-0.24024 2.37575,-1.03022 2.72002,-1.8294 0.20162,-0.46812 0.22373,-1.25631 0.096,-3.42619 z m -0.93837,-22.31244 c -0.79458,-15.80242 -0.94405,-18.36096 -1.07786,-18.45049 -0.21005,-0.14054 -1.18737,-1.24581 -1.94968,-2.20486 -1.20387,-1.51455 -3.55651,-3.34226 -6.13045,-4.76254 -2.24561,-1.239092 -2.63986,-1.421218 -4.39599,-2.030686 -2.46994,-0.857219 -3.88621,-0.904295 -6.00839,-0.199781 -1.48944,0.494478 -2.95671,1.33721 -3.98418,2.288297 -0.68995,0.63867 -1.6121,1.87936 -2.33316,3.1391 -0.53288,0.93097 -1.32804,2.54072 -1.33703,2.70676 -0.003,0.0423 0.40098,0.0987 0.89615,0.12555 1.12985,0.0613 1.65918,0.20366 2.82974,0.76125 1.23289,0.58733 1.859,0.63995 2.8402,0.23872 0.36878,-0.1508 0.77135,-0.26871 0.89461,-0.26203 0.26286,0.0142 0.44218,0.32881 0.34062,0.59746 -0.10018,0.26511 -0.95887,0.66678 -1.73979,0.81388 -0.91425,0.1722 -1.45397,0.0664 -2.77518,-0.5442 -1.03284,-0.47729 -1.18364,-0.5201 -2.24685,-0.63764 -0.62683,-0.0693 -1.20067,-0.14801 -1.27521,-0.17494 -0.26993,-0.0977 -1.19949,3.28796 -1.56545,5.70161 -0.18096,1.19396 -0.29914,4.26869 -0.18234,4.74679 0.0655,0.26842 0.068,0.26689 0.50272,-0.32229 0.52773,-0.71511 1.2566,-1.31907 2.06338,-1.70977 1.02338,-0.49557 1.41859,-0.56081 3.5292,-0.58253 3.32946,-0.0343 3.26408,0.005 5.72008,-3.46516 0.81402,-1.15027 1.36083,-1.65869 2.82689,-2.62841 1.76932,-1.17031 2.56082,-1.98575 3.46723,-3.57213 l 0.47751,-0.83572 -1.51098,-0.57988 c -1.89156,-0.72594 -2.38832,-0.85888 -3.11113,-0.83264 -0.7053,0.0256 -0.91351,-0.0835 -0.8927,-0.46762 0.0131,-0.23778 0.0739,-0.308 0.35341,-0.40742 0.7419,-0.26382 1.75845,-0.0555 3.97178,0.81399 1.79033,0.70332 2.27228,0.73577 3.24902,0.21887 0.85106,-0.45041 1.47425,-0.51673 2.26189,-0.24073 0.64179,0.22489 1.00614,0.53225 0.98973,0.8349 -0.0216,0.39717 -0.33005,0.44953 -1.02801,0.17446 -0.77262,-0.30448 -1.20039,-0.27768 -1.93526,0.12121 -0.30605,0.1661 -0.73082,0.3461 -0.94393,0.39996 -0.3621,0.0915 -0.41996,0.15645 -0.88333,0.99112 -1.07731,1.94057 -1.93756,2.86328 -3.83615,4.11462 -1.36525,0.89982 -2.15821,1.64982 -2.90896,2.75136 -1.49798,2.19792 -2.02245,2.76475 -2.92571,3.16199 -0.7666,0.33714 -1.14637,0.38464 -3.25004,0.40647 -2.28609,0.0237 -2.72479,0.11359 -3.70987,0.75956 -0.87913,0.57654 -1.53715,1.41494 -1.9609,2.49851 l -0.20105,0.51402 0.23297,0.96637 c 0.52508,2.17818 1.64287,4.99279 2.85861,7.19802 1.24119,2.25138 2.3714,3.80991 4.33022,5.97114 1.99372,2.19977 2.48337,2.60987 4.67777,3.91769 0.49941,0.29765 0.9222,0.60805 0.93953,0.68978 0.0172,0.0818 -0.009,0.2415 -0.058,0.35514 -0.16303,0.37666 -0.68371,0.24448 -1.77967,-0.45181 -0.53339,-0.33886 -0.98809,-0.59978 -1.01045,-0.57979 -0.0807,0.0722 0.82397,1.49952 1.85485,2.92676 2.22418,3.07933 4.43806,4.96788 6.69667,5.71255 0.6345,0.20919 1.01677,0.26283 2.46537,0.3459 1.45111,0.0826 1.95079,0.071 3.25281,-0.0801 2.71925,-0.31534 3.4183,-0.51194 4.84702,-1.3632 l 0.56345,-0.33571 -0.0317,-0.44759 c -0.0173,-0.24616 -0.44677,-8.70352 -0.95416,-18.7941 z m -1.22434,9.59643 c -0.54008,0.58516 -1.45387,1.31455 -2.10273,1.67838 -0.74807,0.41946 -1.27399,0.51613 -2.82006,0.51841 -1.65312,0.003 -2.08105,0.11687 -2.85064,0.76234 -0.52983,0.44433 -0.52145,0.44122 -0.77469,0.28751 -0.31015,-0.18826 -0.20266,-0.6246 0.26633,-1.08114 0.75101,-0.73107 1.7813,-0.99979 3.485,-0.90898 1.48639,0.0793 2.24579,-0.2409 3.70668,-1.56266 0.65605,-0.59359 0.91168,-0.76742 1.1125,-0.75654 0.2419,0.0131 0.44621,0.24142 0.43307,0.48393 -0.003,0.0498 -0.20765,0.31026 -0.45546,0.57875 z m -0.94361,-10.04619 c -0.11792,0.27083 -1.56786,2.16678 -2.31364,3.02539 -0.75275,0.86665 -1.44337,1.46117 -2.18465,1.88065 -0.5018,0.28395 -0.58959,0.38875 -1.18341,1.41248 -1.26909,2.18786 -2.43083,3.131 -4.68849,3.80622 -1.05391,0.31522 -1.465,0.25216 -1.43937,-0.22084 0.0164,-0.30433 0.16604,-0.38542 1.52331,-0.82592 1.34093,-0.43517 2.24402,-1.05303 3.02425,-2.06909 0.40844,-0.53189 0.9791,-1.47239 0.92796,-1.52938 -0.0167,-0.0185 -0.71368,-0.10083 -1.54909,-0.18284 -2.12562,-0.2088 -3.46088,-0.0247 -4.83824,0.66726 -0.72174,0.36257 -1.94082,1.41137 -2.58283,2.22204 -0.54591,0.68934 -0.9447,0.92977 -1.1803,0.71165 -0.0749,-0.0695 -0.13002,-0.2429 -0.12239,-0.38545 0.029,-0.53698 1.77914,-2.41784 2.86664,-3.08097 0.68648,-0.41859 1.77603,-0.84191 2.65899,-1.03309 0.68889,-0.14917 1.0181,-0.15503 3.01252,-0.0536 l 2.2391,0.11345 0.52925,-0.23707 c 1.11139,-0.49789 1.9119,-1.27557 3.60757,-3.50475 0.96701,-1.27124 1.02464,-1.32794 1.3332,-1.31122 0.35855,0.0195 0.50483,0.26143 0.35958,0.59488 z m -0.65038,-2.18406 c -0.16045,0.0751 -0.2719,0.0505 -0.54287,-0.11989 -1.80959,-1.13716 -2.71295,-1.52252 -3.70526,-1.58069 -0.8192,-0.0484 -1.07414,0.0183 -2.86006,0.74366 -1.8116,0.73581 -2.8567,0.98246 -4.16566,0.98312 -1.22493,6.3e-4 -1.94495,-0.15399 -3.39338,-0.7289 -1.70039,-0.67486 -1.90524,-0.7038 -3.19522,-0.45139 -1.60854,0.31478 -2.46267,0.57789 -3.73343,1.15017 -0.97886,0.44082 -1.16298,0.49465 -1.33488,0.39032 -0.54498,-0.33078 -0.007,-0.88645 1.45166,-1.49733 1.14359,-0.47916 1.91431,-0.67809 4.89339,-1.26308 4.61538,-0.9063 4.91581,-1.06381 6.20087,-3.25103 1.07828,-1.83526 2.13002,-2.72158 4.32932,-3.64836 1.16811,-0.49223 1.71588,-0.45727 1.68526,0.10766 -0.0145,0.2667 -0.1166,0.33479 -0.94169,0.62797 -1.49932,0.53272 -2.84603,1.40812 -3.52896,2.29394 -0.17077,0.22151 -0.54834,0.80719 -0.83903,1.30151 -1.04618,1.779 -1.69667,2.29711 -3.52703,2.80922 -0.58694,0.16423 -1.14227,0.29607 -1.23407,0.29301 -0.55588,-0.0183 0.32357,0.39421 1.60725,0.75438 0.62601,0.17564 1.95498,0.22405 2.66995,0.0971 0.84692,-0.15024 1.38311,-0.32442 2.98633,-0.97016 1.57342,-0.63375 2.02572,-0.73269 3.07413,-0.67248 0.87794,0.0502 1.67799,0.31646 2.81557,0.93624 1.09502,0.5966 1.52376,0.97229 1.50498,1.31876 -0.0105,0.18705 -0.0832,0.31357 -0.21717,0.3762 z m -6.52836,18.18237 c -0.18465,0.0862 -0.69551,0.0298 -1.15644,-0.12765 -0.28918,-0.0989 -0.37045,-0.41691 -0.17458,-0.6832 0.16139,-0.21942 0.2075,-0.22907 0.6935,-0.14508 0.28632,0.0494 0.59948,0.13781 0.69587,0.19636 0.24549,0.14903 0.20816,0.63506 -0.0584,0.75964 z m -3.01388,-0.81209 c -0.16687,0.25381 -0.5768,0.17226 -1.80498,-0.35907 -1.33284,-0.57663 -1.56782,-0.73167 -1.55196,-1.02414 0.0268,-0.4944 0.47766,-0.54921 1.26237,-0.15342 0.27491,0.13865 0.84761,0.38832 1.27267,0.55487 0.89041,0.34884 1.0851,0.58138 0.8219,0.98176 z"
       id="path9" /></g></svg>
